<svg width="24" height="25" viewBox="0 0 24 25" fill="none" xmlns="http://www.w3.org/2000/svg">
<path d="M17 2.31701H19.67C20.236 2.307 20.7859 2.50515 21.2154 2.87383C21.645 3.24251 21.9242 3.75607 22 4.31701V11.317C21.9242 11.878 21.645 12.3915 21.2154 12.7602C20.7859 13.1289 20.236 13.327 19.67 13.317H17M10 15.317V19.317C10 20.1127 10.3161 20.8757 10.8787 21.4383C11.4413 22.0009 12.2044 22.317 13 22.317L17 13.317V2.31701H5.72003C5.2377 2.31156 4.76965 2.48061 4.40212 2.79301C4.0346 3.1054 3.79235 3.54011 3.72003 4.01701L2.34003 13.017C2.29652 13.3037 2.31586 13.5963 2.39669 13.8748C2.47753 14.1532 2.61793 14.4107 2.80817 14.6295C2.99842 14.8483 3.23395 15.0231 3.49846 15.1418C3.76297 15.2605 4.05012 15.3203 4.34003 15.317H10Z" stroke="#D2D2D2" stroke-width="2" stroke-linecap="round" stroke-linejoin="round"/>
</svg>
