<svg width="72" height="78" viewBox="0 0 72 78" fill="none" xmlns="http://www.w3.org/2000/svg">
<g clip-path="url(#clip0)" filter="url(#filter0_d)">
<path d="M38.4972 22.9546H28.758C28.1123 22.9546 27.493 23.2111 27.0364 23.6677C26.5798 24.1243 26.3232 24.7436 26.3232 25.3894V44.8676C26.3232 45.5134 26.5798 46.1327 27.0364 46.5893C27.493 47.0459 28.1123 47.3024 28.758 47.3024H43.3667C44.0125 47.3024 44.6318 47.0459 45.0884 46.5893C45.545 46.1327 45.8015 45.5134 45.8015 44.8676V30.2589L38.4972 22.9546Z" stroke="#0076CB" stroke-width="2" stroke-linecap="round" stroke-linejoin="round"/>
<path d="M38.4971 22.9546V30.2589H45.8014" stroke="#0076CB" stroke-width="2" stroke-linecap="round" stroke-linejoin="round"/>
<path d="M36.0623 42.4329V35.1285" stroke="#0076CB" stroke-width="2" stroke-linecap="round" stroke-linejoin="round"/>
<path d="M32.4102 38.7807H39.7145" stroke="#0076CB" stroke-width="2" stroke-linecap="round" stroke-linejoin="round"/>
</g>
<defs>
<filter id="filter0_d" x="-0.683594" y="-0.200928" width="73.1304" height="78" filterUnits="userSpaceOnUse" color-interpolation-filters="sRGB">
<feFlood flood-opacity="0" result="BackgroundImageFix"/>
<feColorMatrix in="SourceAlpha" type="matrix" values="0 0 0 0 0 0 0 0 0 0 0 0 0 0 0 0 0 0 127 0"/>
<feOffset dy="4"/>
<feGaussianBlur stdDeviation="12.5"/>
<feColorMatrix type="matrix" values="0 0 0 0 0 0 0 0 0 0.462745 0 0 0 0 0.796078 0 0 0 0.35 0"/>
<feBlend mode="normal" in2="BackgroundImageFix" result="effect1_dropShadow"/>
<feBlend mode="normal" in="SourceGraphic" in2="effect1_dropShadow" result="shape"/>
</filter>
<clipPath id="clip0">
<rect width="23.1304" height="28" fill="white" transform="translate(24.3164 20.7991)"/>
</clipPath>
</defs>
</svg>
