<svg width="48" height="49" viewBox="0 0 48 49" fill="none" xmlns="http://www.w3.org/2000/svg">
<circle cx="24" cy="24.5715" r="24" fill="#F5F5F5"/>
<path d="M40.0005 24.5714C40.0005 22.6345 38.4286 21.0626 36.4917 21.0626C35.5373 21.0626 34.6952 21.4275 34.0777 22.045C31.6917 20.3328 28.3794 19.21 24.7303 19.0696L26.3303 11.5749L31.5233 12.6696C31.5794 13.9889 32.6742 15.0556 34.0216 15.0556C35.397 15.0556 36.5198 13.9328 36.5198 12.5573C36.5198 11.1819 35.397 10.0591 34.0216 10.0591C33.0391 10.0591 32.197 10.6205 31.804 11.4626L25.9935 10.2275C25.8251 10.1994 25.6566 10.2275 25.5163 10.3117C25.3759 10.3959 25.2917 10.5363 25.2356 10.7047L23.4672 19.0696C19.7338 19.1819 16.3935 20.2766 13.9794 22.045C13.3619 21.4556 12.4917 21.0626 11.5654 21.0626C9.62857 21.0626 8.05664 22.6345 8.05664 24.5714C8.05664 26.0029 8.89875 27.21 10.1338 27.7714C10.0777 28.1082 10.0496 28.4731 10.0496 28.838C10.0496 34.2275 16.3093 38.5784 24.0566 38.5784C31.804 38.5784 38.0637 34.2275 38.0637 28.838C38.0637 28.4731 38.0356 28.1363 37.9794 27.7994C39.1303 27.238 40.0005 26.0029 40.0005 24.5714ZM16.0005 27.0696C16.0005 25.6942 17.1233 24.5714 18.4987 24.5714C19.8742 24.5714 20.997 25.6942 20.997 27.0696C20.997 28.445 19.8742 29.5679 18.4987 29.5679C17.1233 29.5679 16.0005 28.445 16.0005 27.0696ZM29.9514 33.6661C28.2391 35.3784 24.983 35.4907 24.0286 35.4907C23.0742 35.4907 19.79 35.3503 18.1058 33.6661C17.8531 33.4135 17.8531 32.9924 18.1058 32.7398C18.3584 32.4872 18.7794 32.4872 19.0321 32.7398C20.0987 33.8065 22.4005 34.1994 24.0566 34.1994C25.7128 34.1994 27.9865 33.8065 29.0812 32.7398C29.3338 32.4872 29.7549 32.4872 30.0075 32.7398C30.204 33.0205 30.204 33.4135 29.9514 33.6661ZM29.5023 29.5679C28.1268 29.5679 27.004 28.445 27.004 27.0696C27.004 25.6942 28.1268 24.5714 29.5023 24.5714C30.8777 24.5714 32.0005 25.6942 32.0005 27.0696C32.0005 28.445 30.8777 29.5679 29.5023 29.5679Z" fill="#D2D2D2"/>
</svg>
