<svg width="30" height="31" viewBox="0 0 30 31" fill="none" xmlns="http://www.w3.org/2000/svg">
<g clip-path="url(#clip0)">
<path fill-rule="evenodd" clip-rule="evenodd" d="M20.9302 9.20164C19.413 7.75466 17.3884 6.96638 15.2935 6.99877C11.4601 6.99877 8.20437 9.58496 7.04353 13.0674V13.0675C6.42803 14.8924 6.42803 16.8685 7.04353 18.6934H7.04892C8.21514 22.1705 11.4655 24.7567 15.2989 24.7567C17.2777 24.7567 18.9765 24.2506 20.2931 23.3566V23.353C21.8427 22.3271 22.901 20.7127 23.2303 18.8878H15.2935V13.2295H29.1532C29.326 14.2121 29.407 15.2164 29.407 16.2152C29.407 20.6844 27.8098 24.4629 25.0307 27.0221L25.0336 27.0244C22.5986 29.2704 19.2565 30.5716 15.2935 30.5716C9.73771 30.5716 4.65708 27.4401 2.16266 22.4783V22.4782C0.0785882 18.3263 0.0785933 13.4346 2.16267 9.28266H2.1627L2.16266 9.28263C4.65708 4.31538 9.73771 1.18385 15.2935 1.18385C18.9433 1.14066 22.469 2.51205 25.1254 5.00647L20.9302 9.20164Z" fill="#D2D2D2"/>
</g>
<defs>
<clipPath id="clip0">
<rect width="29.3878" height="30" fill="white" transform="translate(0.305664 0.571533)"/>
</clipPath>
</defs>
</svg>
