<svg width="48" height="49" viewBox="0 0 48 49" fill="none" xmlns="http://www.w3.org/2000/svg">
<circle cx="24" cy="24.5715" r="24" fill="#F5F5F5"/>
<g clip-path="url(#clip0)">
<path fill-rule="evenodd" clip-rule="evenodd" d="M29.9302 18.2016C28.413 16.7547 26.3884 15.9664 24.2935 15.9988C20.4601 15.9988 17.2044 18.585 16.0435 22.0674V22.0675C15.428 23.8924 15.428 25.8685 16.0435 27.6934H16.0489C17.2151 31.1705 20.4655 33.7567 24.2989 33.7567C26.2777 33.7567 27.9765 33.2506 29.2931 32.3566V32.353C30.8427 31.3271 31.901 29.7127 32.2303 27.8878H24.2935V22.2295H38.1532C38.326 23.2121 38.407 24.2164 38.407 25.2152C38.407 29.6844 36.8098 33.4629 34.0307 36.0221L34.0336 36.0244C31.5986 38.2704 28.2565 39.5716 24.2935 39.5716C18.7377 39.5716 13.6571 36.4401 11.1627 31.4783V31.4782C9.07859 27.3263 9.07859 22.4346 11.1627 18.2827H11.1627L11.1627 18.2826C13.6571 13.3154 18.7377 10.1839 24.2935 10.1839C27.9433 10.1407 31.469 11.5121 34.1254 14.0065L29.9302 18.2016Z" fill="#D2D2D2"/>
</g>
<defs>
<clipPath id="clip0">
<rect width="29.3878" height="30" fill="white" transform="translate(9.30566 9.57153)"/>
</clipPath>
</defs>
</svg>
