<svg width="595" height="1087" viewBox="0 0 595 1087" fill="none" xmlns="http://www.w3.org/2000/svg">
<rect x="0.658203" width="594.342" height="1087" fill="#FBFBFB"/>
<path opacity="0.49" d="M374.17 736.8C374.17 741.204 370.589 744.785 366.186 744.785C361.782 744.785 358.201 741.204 358.201 736.8C358.201 732.397 361.782 728.816 366.186 728.816C370.589 728.816 374.17 732.397 374.17 736.8Z" stroke="#79ADE1" stroke-width="2" stroke-miterlimit="10" stroke-linecap="round" stroke-linejoin="round"/>
<path opacity="0.49" d="M124.501 342.339C124.501 346.742 120.92 350.323 116.517 350.323C112.113 350.323 108.532 346.742 108.532 342.339C108.532 337.935 112.113 334.354 116.517 334.354C120.939 334.354 124.501 337.916 124.501 342.339Z" stroke="#79ADE1" stroke-width="2" stroke-miterlimit="10" stroke-linecap="round" stroke-linejoin="round"/>
<g opacity="0.49">
<path opacity="0.49" d="M273.544 263.043V277.016" stroke="#79ADE1" stroke-width="2" stroke-miterlimit="10" stroke-linecap="round" stroke-linejoin="round"/>
<path opacity="0.49" d="M280.53 270.029H266.577" stroke="#79ADE1" stroke-width="2" stroke-miterlimit="10" stroke-linecap="round" stroke-linejoin="round"/>
</g>
<path opacity="0.49" d="M41.7243 563.063L52.5854 544.256H30.8633L41.7243 563.063Z" stroke="#79ADE1" stroke-width="2" stroke-miterlimit="10" stroke-linecap="round" stroke-linejoin="round"/>
<path opacity="0.49" d="M561.137 277.016L550.276 295.822H571.998L561.137 277.016Z" stroke="#79ADE1" stroke-width="2" stroke-miterlimit="10" stroke-linecap="round" stroke-linejoin="round"/>
<path opacity="0.49" d="M382.676 902.091L371.815 920.898H393.538L382.676 902.091Z" stroke="#79ADE1" stroke-width="2" stroke-miterlimit="10" stroke-linecap="round" stroke-linejoin="round"/>
<path opacity="0.49" d="M24.8545 847.975C29.5903 843.239 37.8877 851.536 42.6236 846.801C47.3594 842.065 39.0619 833.767 43.7977 829.032C48.5336 824.296 56.8311 832.593 61.5669 827.857C66.3027 823.122 58.0052 814.824 62.7215 810.088C67.4573 805.352 75.7547 813.65 80.4905 808.914C85.2264 804.178 76.9289 795.881 81.6647 791.125C86.4005 786.39 94.698 794.687 99.4534 789.951" stroke="#79ADE1" stroke-width="2" stroke-miterlimit="10" stroke-linecap="round" stroke-linejoin="round"/>
<path opacity="0.49" d="M168.954 1043.7C173.69 1038.97 181.987 1047.26 186.723 1042.53C191.459 1037.79 183.162 1029.49 187.897 1024.76C192.633 1020.02 200.931 1028.32 205.666 1023.58C210.402 1018.85 202.105 1010.55 206.821 1005.81C211.557 1001.08 219.854 1009.38 224.59 1004.64C229.326 999.905 221.029 991.607 225.764 986.852C230.5 982.116 238.798 990.414 243.553 985.678" stroke="#79ADE1" stroke-width="2" stroke-miterlimit="10" stroke-linecap="round" stroke-linejoin="round"/>
<path opacity="0.49" d="M437.36 809.286C442.096 804.55 450.394 812.848 455.129 808.112C459.865 803.376 451.568 795.079 456.304 790.343C461.039 785.607 469.337 793.904 474.073 789.169C478.809 784.433 470.511 776.135 475.227 771.4C479.963 766.664 488.261 774.961 492.996 770.225C497.732 765.49 489.435 757.192 494.171 752.437C498.906 747.701 507.204 755.998 511.959 751.263" stroke="#79ADE1" stroke-width="2" stroke-miterlimit="10" stroke-linecap="round" stroke-linejoin="round"/>
<path opacity="0.49" d="M460.706 272.103C465.442 267.368 473.739 275.665 478.475 270.929C483.211 266.193 474.913 257.896 479.649 253.16C484.385 248.424 492.683 256.722 497.418 251.986C502.154 247.25 493.857 238.953 498.573 234.217C503.309 229.481 511.606 237.779 516.342 233.043C521.078 228.307 512.781 220.009 517.516 215.254C522.252 210.518 530.55 218.816 535.305 214.08" stroke="#79ADE1" stroke-width="2" stroke-miterlimit="10" stroke-linecap="round" stroke-linejoin="round"/>
<path opacity="0.49" d="M90.1826 109.512C94.9184 104.776 103.216 113.073 107.952 108.337C112.688 103.602 104.39 95.3042 109.126 90.5684C113.862 85.8326 122.159 94.13 126.895 89.3942C131.631 84.6584 123.333 76.361 128.05 71.6251C132.785 66.8893 141.083 75.1868 145.819 70.451C150.554 65.7152 142.257 57.4177 146.993 52.6623C151.729 47.9265 160.026 56.2239 164.782 51.4881" stroke="#79ADE1" stroke-width="2" stroke-miterlimit="10" stroke-linecap="round" stroke-linejoin="round"/>
<g clip-path="url(#clip0)">
<path opacity="0.4" d="M309.911 718.725L177.088 642.243C176.323 641.806 175.691 641.171 175.257 640.404C174.824 639.638 174.606 638.768 174.625 637.888C174.645 637.007 174.902 636.149 175.369 635.402C175.837 634.656 176.497 634.049 177.28 633.647L193.99 625.024C194.721 624.651 195.533 624.466 196.353 624.485C197.173 624.504 197.975 624.727 198.688 625.134L335.974 704.192C336.738 704.631 337.37 705.267 337.803 706.035C338.236 706.803 338.454 707.673 338.434 708.554C338.414 709.435 338.158 710.294 337.691 711.042C337.224 711.789 336.564 712.397 335.781 712.801L323.659 719.042C321.525 720.146 319.147 720.696 316.744 720.64C314.342 720.585 311.992 719.926 309.911 718.725Z" fill="#D6D8E5"/>
<path d="M318.052 704.329L204.845 638.978C195.202 633.468 187.474 618.59 187.474 605.807V290.031C187.474 277.247 195.257 271.365 204.845 276.903L318.052 342.378C327.695 347.888 335.423 362.765 335.423 375.549V691.284C335.423 703.999 327.639 709.867 318.052 704.329Z" fill="#B1B4C4"/>
<path d="M319.994 710.018L328.962 705.486L320.366 690.747L319.994 710.018Z" fill="#B1B4C4"/>
<path d="M185.752 280.112L194.003 275.787L192.337 287.951L185.752 280.112Z" fill="#B1B4C4"/>
<path d="M310.917 707.938L197.723 642.587C188.08 637.077 180.366 622.2 180.366 609.416V293.695C180.366 280.911 188.136 275.029 197.723 280.567L310.917 345.918C320.56 351.428 328.274 366.306 328.274 379.089V694.824C328.205 707.608 320.436 713.476 310.917 707.938Z" fill="#616E84"/>
<path d="M326.993 379.902V695.609C326.993 708.407 319.223 714.275 309.635 708.751L265.251 683.115L251.475 675.153L196.442 643.4C186.799 637.89 179.085 623.012 179.085 610.215V294.508C179.085 281.765 186.854 275.842 196.442 281.366L309.635 346.717C319.182 352.255 326.993 367.174 326.993 379.902Z" fill="#20232D"/>
<path d="M318.837 376.692V684.189C318.837 691.931 313.396 695.086 306.687 691.201L271.298 670.772L268.212 668.967L267.165 668.361L259.52 663.939L237.382 651.183L228.194 645.88L224.502 643.744L199.334 629.266C192.626 625.395 187.198 615.959 187.198 608.217V300.72C187.198 292.965 192.626 289.824 199.334 293.695L243.526 319.221V319.345C243.717 322.632 244.679 325.828 246.335 328.674C247.991 331.52 250.295 333.935 253.059 335.724C258.294 338.713 262.537 336.289 262.537 330.214C262.537 330.214 262.537 330.117 262.537 330.076L306.728 355.602C313.396 359.514 318.837 368.937 318.837 376.692Z" fill="white"/>
<path d="M257.27 332.776C258.679 331.965 258.688 329.334 257.288 326.898C255.888 324.462 253.61 323.145 252.2 323.955C250.79 324.765 250.782 327.396 252.182 329.832C253.582 332.268 255.86 333.586 257.27 332.776Z" fill="#2B303F"/>
<path opacity="0.1" d="M253.059 329.883C252.614 329.592 252.244 329.199 251.98 328.737C251.716 328.275 251.567 327.756 251.544 327.224C251.544 326.26 252.219 325.847 253.045 326.357C253.484 326.641 253.848 327.025 254.109 327.478C254.37 327.93 254.52 328.438 254.547 328.96C254.547 329.98 253.872 330.365 253.059 329.883Z" fill="white"/>
<path d="M331.58 421.435C330.657 421.973 329.899 421.435 329.899 420.168V406.709C329.912 406.083 330.071 405.468 330.362 404.913C330.654 404.358 331.071 403.879 331.58 403.513C332.503 402.99 333.247 403.513 333.247 404.781V418.239C333.239 418.865 333.084 419.481 332.794 420.036C332.505 420.591 332.089 421.07 331.58 421.435Z" fill="#757B89"/>
<path d="M331.58 443.49C330.657 444.027 329.899 443.49 329.899 442.236V428.764C329.912 428.137 330.071 427.522 330.362 426.968C330.654 426.413 331.071 425.934 331.58 425.568C332.503 425.045 333.247 425.568 333.247 426.835V440.294C333.24 440.92 333.085 441.536 332.796 442.091C332.506 442.647 332.09 443.126 331.58 443.49Z" fill="#757B89"/>
<path d="M288.875 555.733C290.475 556.767 291.808 558.164 292.766 559.811C293.723 561.458 294.278 563.308 294.385 565.21V574.591C294.385 578.077 291.906 579.482 288.875 577.718L213.881 534.436C212.281 533.402 210.948 532.004 209.991 530.357C209.033 528.71 208.478 526.86 208.371 524.958V515.577C208.371 512.092 210.864 510.687 213.881 512.436L288.875 555.733Z" fill="#D5D7E2"/>
<path opacity="0.4" d="M131.063 769.226C159.951 769.226 183.369 755.706 183.369 739.03C183.369 722.353 159.951 708.834 131.063 708.834C102.176 708.834 78.7578 722.353 78.7578 739.03C78.7578 755.706 102.176 769.226 131.063 769.226Z" fill="#D6D8E5"/>
<path d="M87.7538 503.854C87.1339 509.254 80.687 532.562 82.0646 540.538C83.4421 548.514 105.483 561.891 105.483 561.891L108.541 548.211L96.336 536.268L99.6421 513.635L87.7538 503.854Z" fill="#FFCEA9"/>
<path d="M104.766 480.877C102.623 479.887 100.192 479.717 97.9319 480.4C95.6723 481.083 93.7417 482.571 92.5059 484.582C89.2687 489.955 85.9074 508.359 85.6182 511.5C85.6182 511.5 90.1641 517.781 96.983 516.734L104.766 480.877Z" fill="#EDEDED"/>
<path d="M129.921 740.752C134.731 742.096 139.879 741.476 144.234 739.03C147.677 739.14 166.274 731.164 168.837 737.859C171.054 743.727 162.982 749.155 158.67 750.257C149.262 752.53 142.305 757.227 138.517 758.026C135.762 758.618 132.056 759.004 129.811 756.8C127.055 754.086 127.29 744.251 129.921 740.752Z" fill="#38226D"/>
<path d="M138.448 756.346C142.236 755.547 149.193 750.835 158.601 748.576C162.224 747.695 168.451 743.741 169.071 739.03C169.911 744.43 162.624 749.224 158.601 750.202C149.193 752.475 142.236 757.172 138.448 757.971C135.693 758.563 131.987 758.949 129.742 756.745C129.163 756.098 128.743 755.324 128.516 754.486C129.911 755.55 131.536 756.272 133.261 756.595C134.986 756.918 136.762 756.832 138.448 756.346Z" fill="#0076CB"/>
<path d="M99.6969 727.183C104.482 728.504 109.595 727.885 113.927 725.461C117.371 725.571 135.968 717.581 138.53 724.29C140.748 730.158 132.689 735.586 128.378 736.688C118.955 738.961 111.998 743.658 108.21 744.457C105.455 745.049 101.749 745.435 99.504 743.217C96.8316 740.49 97.0658 730.682 99.6969 727.183Z" fill="#38226D"/>
<path d="M108.224 742.777C112.012 741.978 118.969 737.266 128.391 735.007C132.001 734.126 138.227 730.172 138.847 725.461C139.687 730.861 132.414 735.655 128.391 736.633C118.969 738.906 112.012 743.603 108.224 744.402C105.469 744.995 101.763 745.38 99.518 743.162C98.9363 742.522 98.5159 741.752 98.292 740.917C99.6875 741.981 101.313 742.703 103.037 743.026C104.762 743.349 106.538 743.263 108.224 742.777Z" fill="#0076CB"/>
<path d="M99.325 676.558C100.127 669.635 101.566 662.801 103.623 656.143C103.623 656.143 102.342 638.537 101.708 621.841C100.978 602.886 94.3934 586.204 99.5868 571.093L158.009 584.097C158.009 584.097 154.468 659.642 153.697 668.788C153.263 675.908 152.384 682.993 151.066 690.003C148.393 704.66 144.068 739.595 144.068 739.595C137.883 743.176 129.769 741.193 129.769 741.193C129.769 741.193 130.21 697.111 130.609 686.504C131.091 673.61 131.491 674.588 131.491 674.588L129.562 642.45L128.295 626.456C128.295 626.456 126.669 638.193 125.622 648.676C124.7 657.809 122.495 666.088 120.03 683.115C117.894 697.882 114.423 727.527 114.423 727.527C108.238 731.123 99.8485 728.147 99.8485 728.147C99.8485 728.147 97.6582 689.355 99.325 676.558Z" fill="#8C50FF"/>
<path d="M107.867 481.207C112.316 481.414 115.636 482.585 116.132 481.207C116.616 478.912 116.956 476.588 117.151 474.251C116.642 472.956 116.201 471.564 116.201 471.564C110.608 468.134 108.845 462.087 108.101 455.034C106.847 443.008 113.349 432.483 125.375 431.216C136.685 430.045 145.005 437.994 147.223 448.904C148.422 454.29 150.805 464.47 147.581 473.328C145.791 478.287 143.449 482.213 141.148 482.971C138.907 482.905 136.671 482.707 134.453 482.378C134.453 482.378 133.847 485.712 133.434 487.888C133.021 490.065 133.186 491.167 137.456 493.798C141.727 496.429 130.996 501.829 123.998 501.306C117 500.782 109.175 496.663 107.04 492.062C104.602 487.021 104.809 481.056 107.867 481.207Z" fill="#FFCEA9"/>
<path d="M114.314 481.855C113.074 484.94 116.215 488.742 124.576 491.332C132.938 493.922 133.682 490.575 133.682 490.575C133.682 490.575 145.942 496.085 149.937 498.95C154.965 502.463 157.183 512.615 157.858 529.752C158.643 549.589 158.712 579.013 158.051 584.097C158.051 584.097 148.67 593.436 136.671 592.458C124.673 591.48 104.464 580.845 99.5737 572.649C99.6977 555.251 101.736 552.427 98.9263 542.343C92.4794 519.407 89.0768 510.012 92.2176 494.776C94.7936 482.213 98.4166 480.656 103.376 480.766C107.038 480.935 110.689 481.299 114.314 481.855Z" fill="#F4F4F4"/>
<path d="M205.549 531.488C195.644 529.188 182.764 528.044 178.37 525.069C167.735 517.864 158.988 510.604 152.541 506.885C144.937 502.491 141.906 503.427 137.801 504.901C132.979 506.651 132.607 512.368 140.845 519.242C150.598 527.355 158.313 532.287 171.689 540.249C175.188 542.329 214.09 545.966 224.394 546.366C227.149 546.476 229.243 546.669 234.56 546.875C239.877 547.082 246.035 546.049 249.947 543.955C253.86 541.861 254.948 540.483 254.865 539.505C254.769 538.279 253.639 537.963 251.738 538.72C248.819 540.135 245.67 541.013 242.44 541.31C242.44 541.31 246.683 539.932 249.135 538.789C251.326 537.829 253.379 536.578 255.237 535.07C257 533.582 256.684 530.179 254.755 530.937C252.826 531.695 251.518 532.728 247.867 534.284C245.929 535.114 243.899 535.711 241.82 536.062C244.224 534.872 246.527 533.49 248.708 531.929C250.51 530.778 251.945 529.133 252.84 527.19C253.295 526.171 252.496 524.27 250.223 525.482C248.17 526.556 246.09 528.788 241.82 530.248C238.748 531.295 236.434 531.626 236.681 531.006C236.929 530.386 238.775 529.918 240.731 527.879C242.688 525.84 243.28 522.892 242.109 521.928C240.938 520.964 241.131 521.17 238.899 522.878C236.668 524.587 234.147 525.413 231.199 528.072C229.322 530.052 226.991 531.546 224.408 532.425C221.019 533.582 214.958 533.665 205.549 531.488Z" fill="#FFCEA9"/>
<path d="M133.723 500.686C138.393 495.933 143.889 495.506 152.209 501.705C160.53 507.904 167.087 513.208 167.087 513.208C167.277 517.779 165.709 522.25 162.706 525.702C157.568 531.956 153.064 530.661 153.064 530.661C153.064 530.661 145.019 523.65 139.646 518.787C134.274 513.924 127.951 506.54 133.723 500.686Z" fill="#EDEDED"/>
<path d="M146.892 447.361C146.892 447.361 157.293 431.56 134.77 428.337C118.529 426.023 108.087 436.451 106.888 447.788C105.731 458.602 112.399 469.829 117.206 474.292C119.548 475.132 124.604 475.67 131.244 472.598C131.507 469.653 131.608 466.696 131.547 463.74C131.547 463.74 123.639 447.072 146.892 447.361Z" fill="#3A2C6D"/>
<g opacity="0.4">
<path opacity="0.4" d="M492.753 771.306C509.049 780.714 522.88 779.736 507.782 790.853C469.018 819.382 450.379 814.809 434.083 805.4L363.167 764.445C346.856 755.037 356.61 734.139 372.81 724.758C389.01 715.377 405.526 720.942 421.837 730.365L492.753 771.306Z" fill="#D6D8E5"/>
</g>
<path d="M516.943 666.102C516.943 666.529 516.874 666.97 516.791 667.411C516.722 667.768 516.634 668.122 516.529 668.471C516.419 668.885 516.323 669.298 516.171 669.711C516.02 670.124 515.896 670.386 515.744 670.731C515.593 671.075 515.372 671.598 515.138 672.025C514.904 672.453 514.766 672.645 514.587 672.948C514.408 673.252 513.967 673.927 513.609 674.395C513.251 674.863 512.906 675.318 512.507 675.772C512.411 675.869 512.328 675.979 512.231 676.089C511.694 676.682 511.102 677.246 510.482 677.811C510.082 678.169 509.642 678.514 509.201 678.872C508.76 679.23 508.457 679.492 508.044 679.781C507.63 680.07 507.052 680.456 506.542 680.787C506.032 681.117 505.523 681.476 504.958 681.792C503.685 682.527 502.375 683.193 501.032 683.79L499.847 684.286C498.791 684.745 497.703 685.158 496.582 685.526C496.183 685.663 495.783 685.815 495.384 685.939C494.681 686.159 494.006 686.352 493.235 686.559C492.464 686.765 492.161 686.862 491.596 687C491.031 687.137 490.067 687.33 489.295 687.482C488.772 687.592 488.262 687.716 487.725 687.798C486.168 688.074 484.584 688.294 483 688.46L481.512 688.584C480.575 688.666 479.639 688.735 478.757 688.777C478.165 688.777 477.558 688.777 476.952 688.777C476.346 688.777 475.437 688.777 474.679 688.777C473.922 688.777 473.398 688.777 472.765 688.777C472.131 688.777 471.387 688.777 470.657 688.666L468.728 688.515L466.662 688.281L464.802 688.019L462.585 687.633L460.863 687.289C459.995 687.096 459.141 686.876 458.287 686.655L456.909 686.269C455.38 685.815 453.892 685.319 452.446 684.754C451.729 684.479 451.068 684.175 450.352 683.872C449.994 683.707 449.622 683.569 449.277 683.404C448.23 682.894 447.197 682.371 446.219 681.806L375.275 640.852C367.079 636.113 362.988 629.9 363.001 623.687L362.698 734.704C362.698 740.917 366.831 747.102 374.972 751.855L445.792 792.837C446.784 793.402 447.803 793.925 448.85 794.421C449.195 794.586 449.58 794.738 449.939 794.889C450.558 795.165 451.165 795.454 451.798 795.702L452.019 795.785C453.465 796.35 454.953 796.845 456.482 797.286L456.84 797.41L457.915 797.672C458.769 797.892 459.623 798.113 460.491 798.306C460.725 798.306 460.945 798.43 461.179 798.471L462.226 798.65C462.956 798.788 463.687 798.926 464.43 799.036L465.312 799.187C465.629 799.187 465.96 799.256 466.29 799.297C466.979 799.394 467.668 799.463 468.37 799.532L469.348 799.642H470.285L472.393 799.752H473.453H477.71H478.385C479.336 799.752 480.258 799.642 481.14 799.573L482.283 799.49H482.628C484.226 799.325 485.796 799.105 487.367 798.829H487.587C488.042 798.746 488.469 798.622 488.965 798.54C489.736 798.393 490.507 798.228 491.279 798.044L492.904 797.603C493.621 797.41 494.351 797.217 495.053 796.997L495.508 796.859C495.77 796.777 495.99 796.666 496.252 796.584C497.363 796.198 498.451 795.785 499.517 795.344L500.715 794.834C502.093 794.228 503.388 793.567 504.641 792.851L505.137 792.547C505.523 792.313 505.853 792.065 506.212 791.831C506.57 791.597 507.245 791.184 507.713 790.839C508.181 790.495 508.498 790.219 508.87 789.916C509.242 789.613 509.752 789.228 510.151 788.856L510.413 788.649C510.937 788.153 511.432 787.657 511.901 787.147L512.176 786.817C512.452 786.5 512.741 786.197 512.989 785.88C513.237 785.563 513.168 785.591 513.278 785.453C513.637 784.971 513.953 784.489 514.256 783.993C514.38 783.8 514.546 783.593 514.656 783.387C514.715 783.285 514.765 783.179 514.807 783.07C515.035 782.65 515.237 782.218 515.414 781.775C515.524 781.527 515.675 781.279 515.772 781.031C515.868 780.783 515.772 780.852 515.772 780.769C515.923 780.356 516.02 779.929 516.13 779.516C516.227 779.24 516.31 778.96 516.378 778.676C516.378 778.607 516.378 778.538 516.378 778.455C516.378 778.014 516.488 777.587 516.516 777.146C516.543 776.706 516.612 776.582 516.626 776.292V775.92L516.943 664.917C516.962 665.312 516.962 665.707 516.943 666.102Z" fill="#D5D7E2"/>
<path d="M504.779 647.767C521.062 657.176 521.158 672.439 504.958 681.847C488.758 691.256 462.406 691.27 446.109 681.847L375.166 640.893C358.883 631.484 358.786 616.221 375 606.798C391.214 597.376 417.539 597.39 433.835 606.798L504.779 647.767Z" fill="#E9EAF4"/>
<path d="M398.873 735.283L408.516 709.109C405.652 705.347 404.004 700.801 403.791 696.078C403.791 690.705 406.794 687.812 410.954 688.515C412.267 688.729 413.526 689.197 414.66 689.892C420.638 693.35 425.487 701.698 425.46 708.586C425.46 712.87 423.545 715.542 420.666 716.121L427.884 744.443L430.143 753.37L398.873 735.283Z" fill="#3A4151"/>
<path d="M405.43 731.453L415.073 705.28C412.198 701.524 410.548 696.974 410.348 692.248C410.334 690.978 410.539 689.715 410.954 688.515C412.267 688.729 413.525 689.197 414.659 689.892C420.638 693.35 425.487 701.698 425.459 708.586C425.459 712.87 423.545 715.542 420.665 716.121L427.884 744.443L405.43 731.453Z" fill="#323944"/>
<path d="M417.236 567.649C416.577 568.053 415.955 568.514 415.377 569.026L415.073 569.302C414.553 569.824 414.091 570.401 413.696 571.024L413.324 571.63L413.241 571.781C413.167 571.89 413.102 572.005 413.048 572.126C412.83 572.534 412.641 572.958 412.484 573.393C412.484 573.393 412.484 573.393 412.484 573.476C412.11 574.507 411.865 575.58 411.754 576.672V576.796C411.674 577.398 411.637 578.006 411.643 578.614L411.547 615.808V629.211C408.365 630.81 404.844 631.613 401.284 631.553V613.439V584.62C401.291 583.646 401.378 582.673 401.546 581.713C401.546 581.521 401.615 581.314 401.67 581.107C401.722 580.837 401.791 580.57 401.877 580.308C401.877 580.308 401.877 580.226 401.877 580.184C401.952 579.941 402.039 579.702 402.138 579.468C402.125 579.428 402.125 579.384 402.138 579.344C402.221 579.151 402.29 578.972 402.372 578.793C402.414 578.635 402.474 578.482 402.552 578.338C402.601 578.275 402.642 578.205 402.675 578.132C402.847 577.762 403.05 577.407 403.282 577.071C403.282 577.071 403.282 577.071 403.351 577.071C403.555 576.766 403.776 576.472 404.012 576.189C404.26 575.914 404.508 575.638 404.769 575.377C404.849 575.264 404.952 575.17 405.072 575.101C405.351 574.84 405.646 574.597 405.954 574.371C406.217 574.156 406.504 573.971 406.808 573.82C406.895 573.745 406.987 573.676 407.084 573.613L417.236 567.649Z" fill="#323944"/>
<path d="M492.587 624.128V625.395L492.491 662.217V675.759C489.337 677.304 485.864 678.083 482.352 678.032H482.228V659.917L482.297 631.374C482.302 629.864 482.219 628.356 482.049 626.856C481.966 626.126 481.87 625.368 481.746 624.61C481.746 624.514 481.746 624.39 481.746 624.28C481.65 623.701 481.553 623.095 481.415 622.516C481.429 622.434 481.429 622.351 481.415 622.268C481.112 620.808 480.754 619.32 480.327 617.833C480.327 617.626 480.203 617.447 480.148 617.254C479.955 616.593 479.749 615.959 479.528 615.312C479.308 614.664 479.018 613.796 478.743 613.039C478.467 612.281 478.206 611.661 477.93 610.973C477.586 610.063 477.173 609.154 476.773 608.217C476.72 608.122 476.678 608.02 476.649 607.914C476.649 607.914 476.649 607.845 476.566 607.79C475.836 606.179 475.037 604.539 474.156 602.928C473.825 602.266 473.467 601.633 473.095 600.985C472.613 600.117 472.131 599.263 471.607 598.409C471.084 597.555 470.436 596.618 469.858 595.737C469.582 595.282 469.307 594.828 469.004 594.359L468.701 593.905C468.649 593.825 468.589 593.751 468.522 593.684C466.427 590.607 464.174 587.641 461.772 584.799C461.62 584.606 461.441 584.427 461.289 584.248C460.174 582.87 459.044 581.644 457.859 580.418C457.699 580.221 457.524 580.037 457.336 579.867C456.73 579.234 456.124 578.6 455.49 577.966C454.856 577.333 454.03 576.506 453.272 575.804C452.129 574.743 450.999 573.682 449.814 572.649C447.776 570.886 445.682 569.214 443.533 567.635L442.279 566.726C439.962 565.058 437.562 563.509 435.088 562.083C434.248 561.601 433.449 561.174 432.636 560.706C431.824 560.237 430.818 559.769 429.881 559.328C429.261 559.025 428.628 558.75 428.022 558.474L427.236 558.116L426.3 557.744C424.619 557.041 422.952 556.366 421.313 555.926C421.249 555.911 421.185 555.902 421.12 555.898L420.514 555.747C420.238 555.636 419.963 555.595 419.715 555.512C419.467 555.43 419.026 555.306 418.709 555.237H418.627L417.952 555.085C417.346 554.934 416.781 554.81 416.202 554.713C415.885 554.631 415.527 554.589 415.197 554.534C415.138 554.521 415.076 554.521 415.017 554.534L413.791 554.328H413.502C412.744 554.218 411.981 554.149 411.215 554.121C410.731 554.066 410.243 554.039 409.755 554.038H409.025C408.28 554.033 407.535 554.07 406.793 554.149H406.656H406.091C405.855 554.161 405.621 554.189 405.388 554.231C405.175 554.248 404.963 554.28 404.755 554.328H404.686C404.507 554.328 404.328 554.41 404.149 554.424C403.722 554.507 403.294 554.576 402.867 554.7C402.799 554.689 402.729 554.689 402.661 554.7C402.541 554.701 402.423 554.729 402.316 554.782C402.006 554.849 401.702 554.941 401.407 555.058C401.169 555.106 400.934 555.17 400.705 555.251C400.705 555.251 400.622 555.251 400.594 555.251C400.567 555.251 400.594 555.251 400.594 555.251C400.086 555.422 399.59 555.624 399.107 555.857L398.928 555.926C398.607 556.07 398.294 556.231 397.991 556.408C397.78 556.489 397.577 556.591 397.385 556.711L407.675 550.732C408.707 550.14 409.791 549.642 410.912 549.244C410.953 549.232 410.996 549.232 411.036 549.244C411.936 548.929 412.857 548.675 413.791 548.487L414.094 548.404H414.439C415.073 548.28 415.734 548.211 416.381 548.129H416.808H416.946C417.717 548.129 418.503 548.032 419.329 548.032H419.742C420.376 548.032 421.01 548.032 421.671 548.032H421.767C422.098 548.032 422.442 548.115 422.773 548.129L424.068 548.266H424.192C424.619 548.266 425.046 548.418 425.501 548.473C425.955 548.528 426.134 548.569 426.451 548.652H426.561C427.319 548.804 428.09 548.983 428.903 549.176C429.661 549.355 430.432 549.575 431.19 549.809C431.23 549.797 431.273 549.797 431.314 549.809C431.581 549.878 431.844 549.965 432.099 550.071C432.609 550.223 433.091 550.374 433.559 550.553C433.655 550.572 433.748 550.605 433.835 550.65C434.164 550.746 434.486 550.866 434.799 551.008C435.171 551.159 435.557 551.283 435.956 551.435C436.103 551.511 436.255 551.575 436.411 551.628L437.444 552.082C437.747 552.206 438.05 552.316 438.353 552.468C438.59 552.561 438.821 552.672 439.042 552.799C439.41 552.941 439.769 553.107 440.116 553.294C440.351 553.391 440.571 553.501 440.805 553.625C441.039 553.749 441.439 553.928 441.728 554.08C442.017 554.231 442.444 554.452 442.789 554.658C442.966 554.724 443.137 554.807 443.299 554.906L445.268 555.994C445.461 556.118 445.668 556.215 445.847 556.353C446.729 556.849 447.583 557.386 448.437 557.937C448.878 558.185 449.305 558.488 449.732 558.763C449.94 558.921 450.156 559.068 450.379 559.204L451.04 559.645C451.922 560.251 452.776 560.857 453.644 561.491L454.443 562.125C454.691 562.304 454.953 562.469 455.201 562.676C455.449 562.882 455.903 563.213 456.261 563.516C457.171 564.191 458.025 564.893 458.906 565.651L459.182 565.899C459.352 566.035 459.513 566.182 459.664 566.34C460.27 566.836 460.876 567.346 461.482 567.897C462.088 568.448 462.791 569.081 463.425 569.715C463.552 569.811 463.668 569.922 463.769 570.045C463.84 570.081 463.901 570.133 463.948 570.197C464.756 570.959 465.541 571.731 466.304 572.511L467.502 573.779C467.681 573.944 467.86 574.151 468.039 574.33C468.218 574.509 468.342 574.633 468.494 574.812C469.169 575.542 469.872 576.327 470.533 577.071C470.863 577.429 471.166 577.815 471.469 578.159L471.924 578.71C472.103 578.917 472.296 579.124 472.448 579.316C473.136 580.129 473.756 580.914 474.39 581.713C474.624 582.016 474.844 582.319 475.092 582.623C475.34 582.926 475.478 583.105 475.657 583.353L476.387 584.317C476.993 585.143 477.572 586.011 478.178 586.838L478.853 587.816L479.032 588.078C479.39 588.574 479.693 589.138 480.038 589.634C480.699 590.695 481.415 591.728 482.008 592.761L482.242 593.147C482.972 594.332 483.619 595.544 484.281 596.742C484.281 596.853 484.377 596.949 484.432 597.045C484.505 597.17 484.569 597.299 484.625 597.431C484.928 598.01 485.231 598.561 485.521 599.139C485.81 599.718 486.099 600.31 486.375 600.889C486.526 601.206 486.65 601.536 486.802 601.839C486.852 601.936 486.894 602.038 486.926 602.142C487.008 602.294 487.077 602.473 487.16 602.625C487.408 603.176 487.628 603.713 487.862 604.264C488.097 604.815 488.289 605.325 488.51 605.848C488.62 606.124 488.716 606.413 488.813 606.688C488.838 606.785 488.875 606.877 488.923 606.964C488.978 607.133 489.042 607.298 489.116 607.46C489.295 608.025 489.502 608.548 489.681 609.085C489.86 609.623 490.025 610.16 490.177 610.697C490.259 610.945 490.328 611.193 490.411 611.455C490.493 611.716 490.411 611.634 490.48 611.73C490.55 611.92 490.61 612.113 490.659 612.309C490.81 612.86 490.962 613.397 491.086 613.92C491.21 614.444 491.334 614.954 491.444 615.463C491.444 615.684 491.54 615.945 491.596 616.166C491.589 616.244 491.589 616.322 491.596 616.4C491.596 616.593 491.678 616.8 491.706 616.979C491.802 617.475 491.885 617.984 491.981 618.466C492.078 618.949 492.105 619.417 492.188 619.844C492.27 620.271 492.188 620.423 492.257 620.726C492.27 620.785 492.27 620.846 492.257 620.905C492.263 621.024 492.263 621.144 492.257 621.263C492.257 621.717 492.339 622.186 492.367 622.64C492.394 623.095 492.56 623.701 492.587 624.128Z" fill="#323944"/>
<path d="M482.325 631.374L482.256 659.917V678.032C476.098 678.032 470.836 675.828 468.48 672.728V665.193L468.604 623.426C468.604 609.306 453.272 588.477 435.033 577.967C426.837 573.228 419.205 571.244 413.268 571.795C411.144 571.944 409.075 572.536 407.193 573.531C407.096 573.593 407.004 573.662 406.917 573.737C406.614 573.89 406.328 574.075 406.063 574.288C405.748 574.504 405.453 574.749 405.182 575.019C405.062 575.087 404.958 575.181 404.879 575.294C404.595 575.534 404.341 575.807 404.121 576.107C403.868 576.375 403.647 576.671 403.46 576.988C403.46 576.988 403.46 576.988 403.391 576.988C403.16 577.324 402.957 577.679 402.785 578.049C402.656 578.256 402.554 578.478 402.482 578.71C402.378 578.882 402.299 579.068 402.248 579.261C402.234 579.302 402.234 579.345 402.248 579.385C402.131 579.657 402.039 579.938 401.972 580.226C401.887 580.488 401.818 580.754 401.765 581.025C401.712 581.224 401.671 581.426 401.641 581.631C401.474 582.591 401.386 583.563 401.38 584.537V613.356V631.471C395.305 631.471 390.056 629.377 387.604 626.346V618.453L387.508 576.561C387.508 566.753 391.393 559.921 397.839 556.518C398.143 556.341 398.456 556.18 398.776 556.036L398.955 555.967C399.438 555.734 399.935 555.532 400.443 555.361C400.706 555.253 400.978 555.17 401.256 555.113C401.551 554.996 401.855 554.904 402.165 554.837C402.272 554.784 402.39 554.756 402.509 554.755C402.578 554.744 402.648 554.744 402.716 554.755L403.35 554.617C403.562 554.558 403.779 554.512 403.997 554.479C404.176 554.479 404.355 554.41 404.534 554.383H404.603C404.812 554.335 405.024 554.303 405.237 554.286C405.469 554.244 405.704 554.216 405.939 554.204C406.173 554.183 406.408 554.183 406.642 554.204C407.383 554.125 408.128 554.088 408.874 554.094H409.604C410.092 554.094 410.579 554.122 411.064 554.176C411.829 554.205 412.593 554.274 413.351 554.383C413.859 554.428 414.365 554.502 414.866 554.603C414.925 554.59 414.986 554.59 415.045 554.603C415.376 554.603 415.734 554.7 416.051 554.782C416.629 554.879 417.194 555.003 417.8 555.154C418.406 555.306 418.957 555.43 419.563 555.609C419.811 555.692 420.087 555.733 420.362 555.843L421.175 556.063C422.814 556.573 424.481 557.179 426.162 557.882C426.754 558.102 427.305 558.364 427.884 558.612C428.462 558.86 429.124 559.163 429.744 559.466L431.369 560.279C431.713 560.472 432.099 560.651 432.444 560.83C433.256 561.284 434.055 561.711 434.896 562.207C437.369 563.633 439.769 565.182 442.086 566.85L443.34 567.759C445.489 569.338 447.583 571.01 449.622 572.773C450.806 573.806 451.936 574.867 453.079 575.928C453.837 576.63 454.567 577.305 455.297 578.09C456.027 578.876 456.537 579.358 457.143 579.992C457.332 580.161 457.507 580.346 457.666 580.543C458.851 581.769 459.981 583.063 461.097 584.372C461.248 584.551 461.427 584.73 461.579 584.923C463.982 587.766 466.235 590.731 468.329 593.808C468.505 594.022 468.666 594.247 468.811 594.483C469.72 595.861 470.574 597.156 471.414 598.52C471.938 599.374 472.42 600.228 472.902 601.096C473.274 601.743 473.632 602.377 473.963 603.038C474.845 604.65 475.643 606.289 476.374 607.901C476.456 608.052 476.525 608.204 476.58 608.328C476.98 609.237 477.393 610.146 477.737 611.083C478.013 611.758 478.288 612.46 478.55 613.149C478.812 613.838 479.101 614.664 479.335 615.422C479.57 616.18 479.762 616.703 479.955 617.364C479.955 617.557 480.079 617.736 480.134 617.943C480.561 619.431 480.947 620.919 481.223 622.379C481.236 622.461 481.236 622.545 481.223 622.627C481.36 623.205 481.457 623.811 481.553 624.39C481.553 624.5 481.553 624.624 481.553 624.721C481.677 625.478 481.774 626.208 481.856 626.966C482.096 628.425 482.253 629.897 482.325 631.374Z" fill="#3A4151"/>
<path d="M295.832 445.198C296.523 445.653 297.098 446.264 297.51 446.982C297.921 447.7 298.158 448.504 298.202 449.331L298.009 518.112C298.009 524.173 293.683 526.639 288.366 523.622L221.376 484.885C218.597 483.074 216.285 480.633 214.626 477.761C212.968 474.889 212.009 471.666 211.829 468.355L212.022 399.574C212.022 398.058 213.11 397.438 214.419 398.196L221.61 402.329V391.308C221.61 370.067 236.763 361.471 255.236 372.147C273.709 382.823 288.71 408.776 288.641 430.004V441.024L295.832 445.198ZM274.273 432.8V421.78C274.273 409.63 265.746 394.807 255.194 388.719C244.642 382.63 236.005 387.534 235.978 399.67V410.691L274.287 432.731L274.273 432.8ZM262.151 483.287L260.677 466.757C263.143 466.123 264.617 463.726 264.617 460.172C264.442 456.859 263.486 453.635 261.827 450.762C260.168 447.889 257.852 445.449 255.07 443.642C249.794 440.597 245.428 443.049 245.428 449.152C245.583 453.16 246.941 457.029 249.326 460.255L247.769 474.995C247.721 475.859 247.922 476.72 248.348 477.474C248.764 478.271 249.382 478.945 250.139 479.43L259.782 484.941C260.039 485.128 260.344 485.238 260.661 485.257C260.978 485.277 261.295 485.205 261.572 485.051C261.82 484.83 262.006 484.549 262.112 484.235C262.218 483.921 262.241 483.585 262.179 483.26" fill="#D5D7E2"/>
<path d="M290.832 596.453C291.858 597.101 292.715 597.984 293.333 599.028C293.951 600.072 294.312 601.248 294.386 602.459V612.102C294.386 614.306 292.802 615.202 290.887 614.1L211.733 568.434C210.721 567.774 209.878 566.886 209.272 565.84C208.667 564.794 208.316 563.62 208.248 562.414V552.771C208.248 550.553 209.832 549.672 211.747 550.787L290.832 596.453Z" fill="#D5D7E2"/>
</g>
<path opacity="0.49" d="M251.537 221.72C251.537 226.124 247.956 229.705 243.553 229.705C239.15 229.705 235.568 226.124 235.568 221.72C235.568 217.317 239.15 213.736 243.553 213.736C247.975 213.736 251.537 217.298 251.537 221.72Z" stroke="#79ADE1" stroke-width="2" stroke-miterlimit="10" stroke-linecap="round" stroke-linejoin="round"/>
<defs>
<clipPath id="clip0">
<rect width="439.439" height="540" fill="white" transform="translate(78.1104 273.5)"/>
</clipPath>
</defs>
</svg>
