<svg width="25" height="25" viewBox="0 0 25 25" fill="none" xmlns="http://www.w3.org/2000/svg">
<path d="M7.55273 22.317H4.55273C4.0223 22.317 3.51359 22.1063 3.13852 21.7312C2.76345 21.3562 2.55273 20.8474 2.55273 20.317V13.317C2.55273 12.7866 2.76345 12.2779 3.13852 11.9028C3.51359 11.5277 4.0223 11.317 4.55273 11.317H7.55273M14.5527 9.31702V5.31702C14.5527 4.52137 14.2367 3.75831 13.6741 3.1957C13.1114 2.63309 12.3484 2.31702 11.5527 2.31702L7.55273 11.317V22.317H18.8327C19.3151 22.3225 19.7831 22.1534 20.1506 21.841C20.5182 21.5286 20.7604 21.0939 20.8327 20.617L22.2127 11.617C22.2562 11.3304 22.2369 11.0377 22.1561 10.7593C22.0752 10.4808 21.9348 10.2233 21.7446 10.0045C21.5543 9.78575 21.3188 9.61095 21.0543 9.49223C20.7898 9.37352 20.5026 9.31373 20.2127 9.31702H14.5527Z" stroke="#D2D2D2" stroke-width="2" stroke-linecap="round" stroke-linejoin="round"/>
</svg>
