<svg width="26" height="26" viewBox="0 0 26 26" fill="none" xmlns="http://www.w3.org/2000/svg">
<g clip-path="url(#clip0)">
<path d="M15.7002 7.90503H18.8252C19.5092 7.90503 20.1864 8.03975 20.8183 8.30149C21.4502 8.56323 22.0244 8.94688 22.508 9.43051C22.9917 9.91415 23.3753 10.4883 23.6371 11.1202C23.8988 11.7521 24.0335 12.4294 24.0335 13.1134C24.0335 13.7973 23.8988 14.4746 23.6371 15.1065C23.3753 15.7384 22.9917 16.3126 22.508 16.7962C22.0244 17.2798 21.4502 17.6635 20.8183 17.9252C20.1864 18.187 19.5092 18.3217 18.8252 18.3217H15.7002M9.45019 18.3217H6.32519C5.64122 18.3217 4.96395 18.187 4.33205 17.9252C3.70015 17.6635 3.12598 17.2798 2.64234 16.7962C1.66559 15.8195 1.11686 14.4947 1.11686 13.1134C1.11686 11.732 1.66559 10.4073 2.64234 9.43051C3.6191 8.45376 4.94386 7.90503 6.32519 7.90503H9.45019" stroke="#B0B0B0" stroke-width="2" stroke-linecap="round" stroke-linejoin="round"/>
<path d="M8.40853 13.1133H16.7419" stroke="#B0B0B0" stroke-width="2" stroke-linecap="round" stroke-linejoin="round"/>
</g>
<defs>
<clipPath id="clip0">
<rect width="25" height="25" fill="white" transform="translate(0.0751953 0.613281)"/>
</clipPath>
</defs>
</svg>
