<svg width="73" height="46" viewBox="0 0 73 46" fill="none" xmlns="http://www.w3.org/2000/svg">
<path d="M44.1919 22.9073C44.1919 35.1388 34.3283 45.0544 22.1609 45.0544C9.99351 45.0544 0.129883 35.1388 0.129883 22.9073C0.129883 10.6758 9.99351 0.760254 22.1609 0.760254C34.3283 0.760254 44.1919 10.6758 44.1919 22.9073Z" fill="#ED0006"/>
<path d="M72.773 22.9073C72.773 35.1388 62.9094 45.0544 50.742 45.0544C38.5746 45.0544 28.7109 35.1388 28.7109 22.9073C28.7109 10.6758 38.5746 0.760254 50.742 0.760254C62.9094 0.760254 72.773 10.6758 72.773 22.9073Z" fill="#0099DF"/>
<path fill-rule="evenodd" clip-rule="evenodd" d="M36.4515 39.7637C41.1884 35.7015 44.192 29.6571 44.192 22.9074C44.192 16.1577 41.1884 10.1132 36.4515 6.05103C31.7146 10.1132 28.7109 16.1577 28.7109 22.9074C28.7109 29.6571 31.7146 35.7015 36.4515 39.7637Z" fill="#6C6BBD"/>
</svg>
