<svg width="73" height="46" viewBox="0 0 73 46" fill="none" xmlns="http://www.w3.org/2000/svg">
<path fill-rule="evenodd" clip-rule="evenodd" d="M36.4514 39.7637C32.6043 43.0628 27.614 45.0544 22.1609 45.0544C9.99351 45.0544 0.129883 35.1388 0.129883 22.9073C0.129883 10.6758 9.99351 0.760254 22.1609 0.760254C27.614 0.760254 32.6043 2.75185 36.4514 6.05093C40.2984 2.75185 45.2888 0.760254 50.7418 0.760254C62.9092 0.760254 72.7728 10.6758 72.7728 22.9073C72.7728 35.1388 62.9092 45.0544 50.7418 45.0544C45.2888 45.0544 40.2984 43.0628 36.4514 39.7637Z" fill="#ED0006"/>
<path fill-rule="evenodd" clip-rule="evenodd" d="M36.4512 39.7637C41.1881 35.7015 44.1918 29.6571 44.1918 22.9073C44.1918 16.1576 41.1881 10.1131 36.4512 6.05093C40.2983 2.75185 45.2886 0.760254 50.7416 0.760254C62.909 0.760254 72.7726 10.6758 72.7726 22.9073C72.7726 35.1388 62.909 45.0544 50.7416 45.0544C45.2886 45.0544 40.2983 43.0628 36.4512 39.7637Z" fill="#F9A000"/>
<path fill-rule="evenodd" clip-rule="evenodd" d="M36.4515 39.7637C41.1884 35.7015 44.192 29.6571 44.192 22.9074C44.192 16.1577 41.1884 10.1132 36.4515 6.05103C31.7146 10.1132 28.7109 16.1577 28.7109 22.9074C28.7109 29.6571 31.7146 35.7015 36.4515 39.7637Z" fill="#FF5E00"/>
</svg>
