<svg width="24" height="25" viewBox="0 0 24 25" fill="none" xmlns="http://www.w3.org/2000/svg">
<path d="M21.4403 12.0006L12.2503 21.1906C11.1244 22.3164 9.59747 22.9489 8.00529 22.9489C6.41311 22.9489 4.88613 22.3164 3.76029 21.1906C2.63445 20.0647 2.00195 18.5378 2.00195 16.9456C2.00195 15.3534 2.63445 13.8264 3.76029 12.7006L12.9503 3.51057C13.7009 2.76001 14.7188 2.33835 15.7803 2.33835C16.8417 2.33835 17.8597 2.76001 18.6103 3.51057C19.3609 4.26114 19.7825 5.27912 19.7825 6.34057C19.7825 7.40203 19.3609 8.42001 18.6103 9.17057L9.41029 18.3606C9.03501 18.7359 8.52602 18.9467 7.99529 18.9467C7.46456 18.9467 6.95557 18.7359 6.58029 18.3606C6.20501 17.9853 5.99418 17.4763 5.99418 16.9456C5.99418 16.4148 6.20501 15.9059 6.58029 15.5306L15.0703 7.05057" stroke="#D2D2D2" stroke-width="2" stroke-linecap="round" stroke-linejoin="round"/>
</svg>
