<svg width="26" height="28" viewBox="0 0 26 28" fill="none" xmlns="http://www.w3.org/2000/svg">
<g clip-path="url(#clip0)">
<path d="M24.4353 12.3172L13.7136 23.0388C12.4001 24.3523 10.6186 25.0902 8.76109 25.0902C6.90355 25.0902 5.12208 24.3523 3.80859 23.0388C2.49511 21.7253 1.7572 19.9439 1.7572 18.0863C1.7572 16.2288 2.49511 14.4473 3.80859 13.1338L14.5303 2.41215C15.4059 1.53649 16.5936 1.04456 17.8319 1.04456C19.0703 1.04456 20.2579 1.53649 21.1336 2.41215C22.0093 3.28781 22.5012 4.47545 22.5012 5.71382C22.5012 6.95218 22.0093 8.13983 21.1336 9.01549L10.4003 19.7372C9.96243 20.175 9.36861 20.421 8.74943 20.421C8.13025 20.421 7.53642 20.175 7.09859 19.7372C6.66077 19.2993 6.4148 18.7055 6.4148 18.0863C6.4148 17.4671 6.66077 16.8733 7.09859 16.4355L17.0036 6.54215" stroke="#D2D2D2" stroke-width="2.5" stroke-linecap="round" stroke-linejoin="round"/>
</g>
<defs>
<clipPath id="clip0">
<rect width="26" height="27" fill="white" transform="translate(0 0.00720215)"/>
</clipPath>
</defs>
</svg>
