<svg width="90" height="33" viewBox="0 0 90 33" fill="none" xmlns="http://www.w3.org/2000/svg">
<path fill-rule="evenodd" clip-rule="evenodd" d="M0.228516 24.9958C0.287631 24.676 0.341771 24.3663 0.394844 24.0627C0.476872 23.5934 0.556353 23.1387 0.647722 22.6841C1.03468 20.6274 1.42432 18.5735 1.81397 16.5196L1.81399 16.5195C2.20363 14.4656 2.59327 12.4116 2.98023 10.355C3.03397 10.0945 3.10922 9.92089 3.36719 9.87748C5.37723 9.5736 7.39802 9.35654 9.40806 9.86663C11.1601 10.3008 12.3855 11.5488 12.5897 13.014C13.0089 15.9335 11.3214 18.2669 8.81687 19.1026C7.49476 19.5367 6.15115 19.6452 4.78604 19.515C4.46358 19.4824 4.36684 19.5692 4.31309 19.884C4.02287 21.4794 3.7219 23.0639 3.41018 24.6485C3.38869 24.7787 3.27045 24.9849 3.19521 24.9849C2.4647 25.0011 1.74618 24.9992 0.999354 24.9971C0.746184 24.9965 0.489761 24.9958 0.228516 24.9958ZM5.46252 16.943L5.46255 16.943H5.46256C5.88301 16.9545 6.28004 16.9654 6.66714 16.9211C7.78502 16.8017 8.67718 16.2916 9.18238 15.2172C9.75207 14.0016 9.34361 12.7101 8.26872 12.3303C7.50555 12.059 6.72088 12.1132 5.93621 12.2218C5.83947 12.2326 5.71049 12.3845 5.68899 12.4822C5.53862 13.2778 5.38825 14.0767 5.23224 14.9057C5.10944 15.5582 4.98313 16.2293 4.85058 16.932C5.06071 16.932 5.26422 16.9375 5.46252 16.943ZM19.2862 22.9119C19.1161 23.0905 18.9568 23.2702 18.8011 23.4458C18.4648 23.8252 18.1453 24.1855 17.7706 24.4748C16.642 25.3539 15.3521 25.5492 14.0515 24.9415C12.7616 24.3445 12.2349 23.1833 12.1812 21.8158C12.0629 18.9397 13.0626 16.5629 15.4596 14.9133C16.9644 13.8714 18.695 13.5566 20.4901 13.6543C21.0838 13.6896 21.6731 13.7936 22.2637 13.8979L22.2637 13.8979C22.5819 13.954 22.9004 14.0103 23.2203 14.0559C23.5857 14.1101 23.6395 14.3163 23.575 14.6311C23.4887 15.085 23.4015 15.5384 23.3143 15.9916C22.9887 17.6837 22.6639 19.3719 22.3926 21.0669C22.237 22.0372 22.175 23.0312 22.1135 24.0152L22.1135 24.0154L22.1135 24.0156L22.1134 24.016C22.1027 24.1874 22.0921 24.3585 22.0809 24.529C22.0594 24.8763 21.9734 25.0174 21.6187 25.0066C20.9523 24.9849 20.2858 24.9849 19.6194 25.0066C19.2754 25.0174 19.1572 24.8872 19.1895 24.5508C19.2201 24.179 19.2399 23.7962 19.2604 23.3984L19.2604 23.3983L19.2604 23.3982L19.2604 23.3979L19.2604 23.3978C19.2686 23.2383 19.277 23.0765 19.2862 22.9119ZM20.0382 16.2048C18.9956 15.9117 18.1249 16.1179 17.394 16.7366C16.0181 17.9087 15.3947 19.4281 15.5129 21.2406C15.5452 21.7941 15.7602 22.3259 16.3406 22.5646C16.9211 22.8034 17.4477 22.6298 17.8992 22.239C18.1679 22.0003 18.4259 21.729 18.6194 21.4251C19.3775 20.2567 19.5846 18.9387 19.795 17.6C19.868 17.1356 19.9413 16.6687 20.0382 16.2048ZM35.2697 22.2825C35.8608 24.1926 37.4839 25.2562 40.3324 25.2562C42.2887 25.2019 44.2342 24.0841 45.4488 21.7832C46.0938 20.546 46.3303 19.2219 46.2443 17.8327C46.169 16.4978 45.6423 15.3691 44.5674 14.566C43.4388 13.7194 42.1489 13.5458 40.7731 13.6977C36.1726 14.2187 34.2915 19.1351 35.2697 22.2825ZM38.3308 20.6887C38.332 20.6332 38.3332 20.5782 38.3332 20.5243C38.3654 19.2762 38.6664 18.1149 39.4081 17.0839C39.7413 16.628 40.1605 16.2807 40.7194 16.1505C41.8588 15.89 42.794 16.5521 42.9014 17.8002C43.0304 19.3304 42.665 20.7413 41.7083 21.9677C41.3429 22.4236 40.8807 22.7383 40.2895 22.7926C39.2253 22.8902 38.4192 22.1631 38.3332 21.0235C38.326 20.9146 38.3284 20.8008 38.3308 20.6887ZM48.8022 13.9256H51.5324C51.4894 14.5117 51.4464 15.0761 51.3927 15.6513C51.4922 15.5577 51.5885 15.4652 51.6829 15.3745C51.884 15.1813 52.0766 14.9963 52.2741 14.8264C53.3382 13.8931 54.5529 13.4807 55.961 13.7086C57.1218 13.9039 57.928 14.7613 58.057 15.966C58.1972 17.2195 57.9643 18.4354 57.7319 19.6487L57.6808 19.9165C57.5865 20.4097 57.4932 20.9029 57.4 21.3957C57.1958 22.4755 56.9919 23.5537 56.7779 24.6267C56.7456 24.7678 56.5844 24.974 56.4769 24.9849C55.5525 25.0066 54.6281 24.9957 53.7037 24.9849C53.6727 24.9849 53.6417 24.968 53.5946 24.9423C53.5764 24.9323 53.5557 24.921 53.5317 24.9089C53.7037 24.0081 53.8757 23.0964 54.0369 22.1848C54.2841 20.7847 54.5206 19.3956 54.7356 17.9955C54.7786 17.7568 54.7571 17.5071 54.7248 17.2684C54.6389 16.4327 54.0262 16.0528 53.2307 16.3024C52.4568 16.5521 51.9946 17.1598 51.6184 17.8327C51.0595 18.8203 50.866 19.9165 50.6725 21.0126V21.0127C50.6241 21.2839 50.5762 21.5547 50.5284 21.8251L50.5284 21.8255L50.5283 21.8259L50.5282 21.8262L50.5281 21.8271C50.3637 22.7569 50.1999 23.6831 50.0168 24.6159C49.9846 24.757 49.8234 24.974 49.7159 24.9849C48.9621 25.0108 48.2015 25.0092 47.3905 25.0075C47.1838 25.007 46.9739 25.0066 46.7599 25.0066C47.4694 21.2731 48.1358 17.6157 48.8022 13.9256ZM64.3023 22.7275C63.1629 22.5864 62.3997 21.7832 62.475 20.6545C62.7126 20.6545 62.9491 20.6582 63.1844 20.6618H63.1844C63.6514 20.669 64.1136 20.6762 64.571 20.6545C65.6781 20.5894 66.7638 20.4049 67.7742 19.8948C69.064 19.2436 69.666 18.1692 69.5692 16.7691C69.4725 15.3474 68.7093 14.3164 67.3442 13.9039C65.3019 13.2853 63.4209 13.7194 61.8193 15.0978C59.8737 16.7691 59.1428 18.9832 59.4223 21.5119C59.6158 23.3027 60.5832 24.5833 62.346 25.0392C64.2378 25.5275 66.0973 25.2671 67.8924 24.5291C68.0214 24.4748 68.1719 24.2686 68.1611 24.1384C68.1353 23.6087 68.082 23.0791 68.0287 22.5495C68.0154 22.4171 68.002 22.2847 67.9891 22.1523C67.9538 22.1523 67.9276 22.1504 67.9074 22.149C67.8785 22.147 67.8621 22.1459 67.8494 22.1523C67.7312 22.1957 67.6129 22.2391 67.5054 22.2825C66.4735 22.6841 65.4094 22.8577 64.3023 22.7275ZM65.9679 17.9196C65.3123 18.2669 63.6139 18.4731 62.7863 18.2994C62.9583 16.856 64.4738 15.7273 65.753 16.042C66.1829 16.1505 66.4946 16.3784 66.5699 16.8451C66.6451 17.3009 66.4194 17.6808 65.9679 17.9196ZM73.2133 20.6979C73.1165 21.7615 73.869 22.5755 75.0191 22.7274C76.094 22.8577 77.1259 22.6949 78.1363 22.3259C78.2293 22.2906 78.3193 22.2554 78.418 22.2167C78.5017 22.1839 78.5917 22.1487 78.6952 22.1088C78.7162 22.3388 78.7395 22.5641 78.7625 22.7863C78.8101 23.2459 78.8562 23.6921 78.8779 24.1383C78.8887 24.2686 78.7382 24.4748 78.62 24.529C76.7927 25.2888 74.9116 25.5492 72.9876 25.0174C71.257 24.5399 70.3541 23.2701 70.1391 21.5336C69.8704 19.3087 70.4401 17.3009 71.9772 15.6513C73.6325 13.8822 75.664 13.2527 78.0073 13.9039C79.4369 14.3055 80.2001 15.3474 80.286 16.8125C80.372 18.2451 79.7271 19.3196 78.3835 19.9491C77.0291 20.5785 75.5888 20.6762 74.1269 20.7088C73.8367 20.6979 73.5358 20.6979 73.2133 20.6979ZM73.5247 18.3862C73.7203 18.3739 73.9124 18.3642 74.1017 18.3546C74.5784 18.3305 75.0379 18.3073 75.4918 18.2451C75.9217 18.1909 76.3517 18.0606 76.7387 17.8761C77.1579 17.6916 77.3621 17.3009 77.2976 16.8234C77.2331 16.3676 76.9321 16.1505 76.5129 16.042C75.2446 15.6947 73.6645 16.8668 73.5247 18.3862ZM80.8777 22.7274C80.738 23.4655 80.609 24.1926 80.4692 24.9957C80.6845 24.9957 80.8967 24.9962 81.1064 24.9966C81.9335 24.9983 82.7223 25 83.5112 24.974C83.5864 24.974 83.7046 24.7678 83.7261 24.6376C83.8358 24.0956 83.9374 23.5508 84.0391 23.0063C84.2264 22.0025 84.4136 20.9992 84.6505 20.0142C85.1772 17.8219 86.0694 17.0622 88.1869 16.78C88.2729 16.7691 88.4127 16.6715 88.4342 16.5955C88.569 15.9718 88.6899 15.3434 88.8152 14.6915C88.8796 14.3564 88.9453 14.0152 89.0146 13.6652C86.9723 13.4481 85.8329 14.6419 84.844 16.1071L84.8597 15.8981C84.9083 15.2492 84.9578 14.5888 85.016 13.8931C84.7925 13.8931 84.5732 13.8924 84.357 13.8917C83.7204 13.8897 83.1106 13.8877 82.5008 13.9039C82.4148 13.9148 82.2535 14.1101 82.2428 14.2295C82.0134 17.019 81.4706 19.7472 80.9282 22.4736L80.8777 22.7274Z" fill="black"/>
<path fill-rule="evenodd" clip-rule="evenodd" d="M52.4181 0.832414C52.3093 0.803417 52.2005 0.774419 52.0917 0.75C51.7584 0.75 51.4252 0.75 51.0705 0.760853C50.9494 0.785318 50.8282 0.811989 50.7061 0.838878C50.5573 0.871629 50.4071 0.904702 50.2536 0.934502C48.609 1.24924 47.0612 1.82445 45.5671 2.58416C42.3317 4.23382 39.4295 6.37187 36.8282 8.90063C35.0977 10.572 33.4208 12.3193 31.7978 14.1101C28.9493 17.2575 26.5093 20.7196 24.5638 24.5181C23.5641 26.4825 22.6612 28.4903 22.2528 30.6718C22.1775 31.0734 22.3065 31.54 22.4355 31.9416C22.4892 32.1044 22.7902 32.2238 22.9944 32.2889C23.0482 32.3106 23.2094 32.0393 23.2846 31.8873C23.3114 31.8285 23.3387 31.7682 23.3667 31.7065C23.8335 30.6771 24.4647 29.285 25.0124 28.3634C26.1733 26.4099 27.0898 24.898 28.3904 23.0421C30.4756 20.0575 32.9122 17.1292 35.4704 14.5462C37.8889 12.1042 40.3109 9.92081 43.3528 8.27115C44.7502 7.52229 46.1798 6.78429 47.6416 6.17652C50.1676 5.12377 52.8011 4.40747 55.5098 4.00591C55.8 3.9625 56.187 3.73458 56.2837 3.49582C56.3697 3.27876 56.1655 2.86634 55.9612 2.66013C55.1336 1.80274 54.1662 1.15156 52.9623 0.956208C52.7809 0.929075 52.5995 0.880745 52.4181 0.832414ZM27.8099 15.6404C28.3259 14.2295 28.5839 12.7643 28.6161 11.2449C28.6018 11.0821 28.5898 10.9193 28.5779 10.7565C28.554 10.4309 28.5301 10.1053 28.4871 9.77975C28.1969 7.26184 27.122 5.1238 25.4129 3.28963C25.2087 3.08343 24.9292 2.92063 24.6498 2.82295C24.3703 2.71442 24.1876 2.87722 24.2091 3.20281C24.2096 3.20969 24.2101 3.21657 24.2106 3.22346C24.2316 3.49927 24.2534 3.7849 24.3058 4.0602C24.3813 4.49389 24.4563 4.92811 24.5314 5.36262C24.7982 6.90708 25.0656 8.45525 25.3592 9.99681C25.6494 11.5488 25.9719 13.0899 26.3158 14.6202C26.4341 15.1086 26.6276 15.597 26.864 16.0528C27.0468 16.4001 27.3047 16.3675 27.5412 16.0528L27.5412 16.0528C27.6487 15.9226 27.7562 15.7923 27.8099 15.6404Z" fill="#FC461E"/>
</svg>
