<svg width="37" height="43" viewBox="0 0 37 43" fill="none" xmlns="http://www.w3.org/2000/svg">
<path fill-rule="evenodd" clip-rule="evenodd" d="M10.8866 41.1883L11.6202 36.5391L9.98605 36.501H2.18262L7.60573 2.19232C7.62263 2.08843 7.67724 1.99199 7.75701 1.92338C7.83716 1.85477 7.93932 1.81714 8.0462 1.81714H21.204C25.5725 1.81714 28.587 2.72393 30.1606 4.51399C30.8986 5.35374 31.3685 6.23152 31.596 7.19712C31.8345 8.21055 31.8384 9.42117 31.6058 10.898L31.5889 11.0054V11.9518L32.3268 12.3689C32.948 12.6979 33.4419 13.0742 33.8207 13.5051C34.4518 14.2233 34.86 15.136 35.0325 16.2176C35.2109 17.3302 35.1519 18.6545 34.86 20.1537C34.5233 21.8779 33.9791 23.3798 33.2439 24.6085C32.5681 25.7407 31.7068 26.68 30.684 27.4076C29.7076 28.0992 28.5477 28.6241 27.2361 28.9601C25.965 29.2902 24.5159 29.4568 22.9266 29.4568H21.9026C21.1706 29.4568 20.4594 29.7199 19.9011 30.1915C19.3411 30.6729 18.971 31.3308 18.8575 32.0502L18.78 32.4689L17.4838 40.6637L17.4253 40.9644C17.4095 41.0597 17.3828 41.1071 17.3435 41.1393C17.3086 41.1687 17.2583 41.1883 17.2091 41.1883H10.8866Z" fill="#28356A"/>
<path fill-rule="evenodd" clip-rule="evenodd" d="M33.025 11.1145C32.9861 11.365 32.9409 11.621 32.8906 11.8841C31.1554 20.7732 25.2188 23.8441 17.6369 23.8441H13.7765C12.8492 23.8441 12.0677 24.5156 11.9235 25.4283L9.38714 41.4804C9.29323 42.0799 9.75609 42.6197 10.362 42.6197H17.209C18.0196 42.6197 18.7084 42.032 18.8361 41.2342L18.9033 40.8873L20.1925 32.7246L20.2754 32.2769C20.4015 31.4763 21.0919 30.8883 21.9025 30.8883H22.9265C29.5602 30.8883 34.7534 28.2012 36.2713 20.4247C36.9051 17.1762 36.577 14.4637 34.8992 12.556C34.3915 11.9809 33.7617 11.5034 33.025 11.1145Z" fill="#298FC2"/>
<path fill-rule="evenodd" clip-rule="evenodd" d="M31.2094 10.3926C30.9442 10.3154 30.6707 10.2456 30.3902 10.1825C30.1081 10.1209 29.8193 10.0664 29.5218 10.0186C28.481 9.85082 27.3403 9.77124 26.1187 9.77124H15.8057C15.5515 9.77124 15.3102 9.82848 15.0945 9.93198C14.6187 10.1601 14.2655 10.6094 14.1798 11.1595L11.9857 25.0244L11.9229 25.4286C12.0671 24.5159 12.8486 23.8443 13.7759 23.8443H17.6363C25.2182 23.8443 31.1548 20.7719 32.89 11.8843C32.9418 11.6213 32.9855 11.3653 33.0243 11.1148C32.5855 10.8823 32.11 10.6835 31.598 10.5142C31.4715 10.4722 31.3411 10.4318 31.2094 10.3926Z" fill="#22284F"/>
<path fill-rule="evenodd" clip-rule="evenodd" d="M14.1805 11.1594C14.2661 10.6094 14.6194 10.1601 15.0952 9.93352C15.3125 9.82963 15.5522 9.77239 15.8064 9.77239H26.1194C27.341 9.77239 28.4817 9.85237 29.5225 10.0202C29.82 10.0676 30.1088 10.1225 30.3909 10.184C30.6714 10.2468 30.9449 10.3169 31.2101 10.3938C31.3418 10.433 31.4722 10.4738 31.5999 10.5141C32.1119 10.6835 32.5877 10.8838 33.0266 11.1147C33.5429 7.82983 33.0223 5.59323 31.2424 3.56795C29.2797 1.33802 25.7379 0.383789 21.2055 0.383789H8.04736C7.12164 0.383789 6.33187 1.05536 6.18884 1.9696L0.708362 36.6311C0.600308 37.3168 1.13036 37.9355 1.82348 37.9355H9.94675L14.1805 11.1594Z" fill="#28356A"/>
</svg>
