<svg width="51" height="52" viewBox="0 0 51 52" fill="none" xmlns="http://www.w3.org/2000/svg">
<path fill-rule="evenodd" clip-rule="evenodd" d="M0.600586 23.1119C0.600586 35.5346 10.7956 45.6657 23.418 45.6657C24.9673 45.6657 26.5165 45.5309 28.2966 45.376C30.2818 45.2033 32.554 45.0056 35.4336 44.942C39.8028 44.942 44.5362 46.5099 49.7551 51.0931C50.2406 51.5755 50.9688 50.9724 50.4833 50.3694C45.2645 43.9772 40.5311 42.7711 35.7977 41.6856C29.9719 40.3589 26.9377 37.2231 24.8744 33.6048C24.5103 32.8812 24.2676 33.0018 24.2676 33.9667C24.1462 35.414 24.2676 36.7406 24.5103 38.0673H23.7821C15.529 38.0673 8.73232 31.3133 8.73232 23.1119C8.73232 14.9105 15.529 8.15644 23.7821 8.15644C32.0352 8.15644 38.8319 14.9105 38.8319 23.1119C38.8319 23.5943 38.8319 24.1974 38.7105 24.8004C37.4968 24.5592 35.4336 24.5592 33.8558 24.6798C33.2489 24.6798 33.2489 24.921 33.7344 25.0416C38.5892 26.0065 41.9875 29.0217 42.8371 34.5697C42.8371 34.8109 42.9584 34.8109 43.0798 34.6903C45.0217 31.3133 46.2354 27.3332 46.2354 23.1119C46.2354 10.5686 36.0404 0.4375 23.418 0.4375C10.7956 0.4375 0.600586 10.6892 0.600586 23.1119ZM39.9247 32.3988C40.7742 32.7606 41.1383 33.9667 41.1383 34.5697C41.2597 35.5346 41.017 36.017 40.6529 36.017C40.2888 36.017 39.8033 35.6552 39.3178 34.8109C38.8323 33.9667 38.5896 33.1224 38.8323 32.64C39.1964 32.3988 39.5606 32.2782 39.9247 32.3988ZM34.9479 36.1376C35.4334 36.1376 36.0403 36.3789 36.6471 36.8613C37.6181 37.7056 37.9822 38.6704 37.4967 39.3941C37.254 39.7559 36.6471 39.9971 36.1616 39.9971C35.5548 39.9971 34.9479 39.7559 34.5838 39.3941C33.6129 38.5498 33.3701 37.3437 33.977 36.6201C34.0984 36.3789 34.4625 36.1376 34.9479 36.1376Z" fill="#F28A1A"/>
</svg>
