<svg width="32" height="31" viewBox="0 0 32 31" fill="none" xmlns="http://www.w3.org/2000/svg">
<path d="M32.0005 15.5714C32.0005 13.6345 30.4286 12.0626 28.4917 12.0626C27.5373 12.0626 26.6952 12.4275 26.0777 13.045C23.6917 11.3328 20.3794 10.21 16.7303 10.0696L18.3303 2.57487L23.5233 3.66961C23.5794 4.98891 24.6742 6.05557 26.0216 6.05557C27.397 6.05557 28.5198 4.93277 28.5198 3.55733C28.5198 2.18189 27.397 1.05908 26.0216 1.05908C25.0391 1.05908 24.197 1.62049 23.804 2.46259L17.9935 1.2275C17.8251 1.19943 17.6566 1.2275 17.5163 1.31171C17.3759 1.39592 17.2917 1.53628 17.2356 1.7047L15.4672 10.0696C11.7338 10.1819 8.39348 11.2766 5.97945 13.045C5.3619 12.4556 4.49173 12.0626 3.56541 12.0626C1.62857 12.0626 0.0566406 13.6345 0.0566406 15.5714C0.0566406 17.0029 0.898746 18.21 2.13383 18.7714C2.07769 19.1082 2.04962 19.4731 2.04962 19.838C2.04962 25.2275 8.30927 29.5784 16.0566 29.5784C23.804 29.5784 30.0637 25.2275 30.0637 19.838C30.0637 19.4731 30.0356 19.1363 29.9794 18.7994C31.1303 18.238 32.0005 17.0029 32.0005 15.5714ZM8.0005 18.0696C8.0005 16.6942 9.12331 15.5714 10.4987 15.5714C11.8742 15.5714 12.997 16.6942 12.997 18.0696C12.997 19.445 11.8742 20.5679 10.4987 20.5679C9.12331 20.5679 8.0005 19.445 8.0005 18.0696ZM21.9514 24.6661C20.2391 26.3784 16.983 26.4907 16.0286 26.4907C15.0742 26.4907 11.79 26.3503 10.1058 24.6661C9.85313 24.4135 9.85313 23.9924 10.1058 23.7398C10.3584 23.4872 10.7794 23.4872 11.0321 23.7398C12.0987 24.8065 14.4005 25.1994 16.0566 25.1994C17.7128 25.1994 19.9865 24.8065 21.0812 23.7398C21.3338 23.4872 21.7549 23.4872 22.0075 23.7398C22.204 24.0205 22.204 24.4135 21.9514 24.6661ZM21.5023 20.5679C20.1268 20.5679 19.004 19.445 19.004 18.0696C19.004 16.6942 20.1268 15.5714 21.5023 15.5714C22.8777 15.5714 24.0005 16.6942 24.0005 18.0696C24.0005 19.445 22.8777 20.5679 21.5023 20.5679Z" fill="#D2D2D2"/>
</svg>
