<svg width="25" height="25" viewBox="0 0 25 25" fill="none" xmlns="http://www.w3.org/2000/svg">
<g clip-path="url(#clip0)">
<path d="M12.584 15.8831C14.2408 15.8831 15.584 14.5399 15.584 12.8831C15.584 11.2262 14.2408 9.88306 12.584 9.88306C10.9271 9.88306 9.58398 11.2262 9.58398 12.8831C9.58398 14.5399 10.9271 15.8831 12.584 15.8831Z" stroke="#79ADE1" stroke-width="2" stroke-linecap="round" stroke-linejoin="round"/>
<path d="M19.984 15.8831C19.8509 16.1847 19.8112 16.5192 19.87 16.8436C19.9288 17.168 20.0834 17.4674 20.314 17.7031L20.374 17.7631C20.5599 17.9488 20.7075 18.1694 20.8081 18.4122C20.9088 18.655 20.9606 18.9152 20.9606 19.1781C20.9606 19.4409 20.9088 19.7011 20.8081 19.9439C20.7075 20.1867 20.5599 20.4073 20.374 20.5931C20.1882 20.779 19.9677 20.9265 19.7249 21.0272C19.4821 21.1278 19.2218 21.1796 18.959 21.1796C18.6962 21.1796 18.4359 21.1278 18.1931 21.0272C17.9503 20.9265 17.7297 20.779 17.544 20.5931L17.484 20.5331C17.2483 20.3025 16.949 20.1479 16.6246 20.0891C16.3002 20.0302 15.9656 20.0699 15.664 20.2031C15.3682 20.3298 15.116 20.5403 14.9383 20.8086C14.7606 21.0769 14.6653 21.3913 14.664 21.7131V21.8831C14.664 22.4135 14.4533 22.9222 14.0782 23.2973C13.7031 23.6723 13.1944 23.8831 12.664 23.8831C12.1336 23.8831 11.6248 23.6723 11.2498 23.2973C10.8747 22.9222 10.664 22.4135 10.664 21.8831V21.7931C10.6562 21.4621 10.5491 21.1411 10.3565 20.8718C10.1639 20.6025 9.89472 20.3973 9.58398 20.2831C9.28237 20.1499 8.94779 20.1102 8.6234 20.1691C8.299 20.2279 7.99966 20.3825 7.76398 20.6131L7.70398 20.6731C7.51824 20.859 7.29766 21.0065 7.05486 21.1072C6.81207 21.2078 6.55182 21.2596 6.28898 21.2596C6.02615 21.2596 5.7659 21.2078 5.5231 21.1072C5.28031 21.0065 5.05973 20.859 4.87398 20.6731C4.68803 20.4873 4.54051 20.2667 4.43986 20.0239C4.33922 19.7811 4.28741 19.5209 4.28741 19.2581C4.28741 18.9952 4.33922 18.735 4.43986 18.4922C4.54051 18.2494 4.68803 18.0288 4.87398 17.8431L4.93398 17.7831C5.16452 17.5474 5.31917 17.248 5.37799 16.9236C5.43681 16.5992 5.3971 16.2647 5.26398 15.9631C5.13722 15.6673 4.92674 15.415 4.65845 15.2374C4.39016 15.0597 4.07577 14.9643 3.75398 14.9631H3.58398C3.05355 14.9631 2.54484 14.7523 2.16977 14.3773C1.7947 14.0022 1.58398 13.4935 1.58398 12.9631C1.58398 12.4326 1.7947 11.9239 2.16977 11.5488C2.54484 11.1738 3.05355 10.9631 3.58398 10.9631H3.67398C4.00498 10.9553 4.32599 10.8482 4.59528 10.6556C4.86458 10.463 5.0697 10.1938 5.18398 9.88306C5.3171 9.58144 5.35681 9.24686 5.29799 8.92247C5.23917 8.59807 5.08452 8.29874 4.85398 8.06306L4.79398 8.00306C4.60803 7.81731 4.46051 7.59673 4.35986 7.35394C4.25922 7.11114 4.20741 6.85089 4.20741 6.58806C4.20741 6.32523 4.25922 6.06497 4.35986 5.82218C4.46051 5.57938 4.60803 5.3588 4.79398 5.17306C4.97973 4.9871 5.20031 4.83959 5.4431 4.73894C5.6859 4.63829 5.94615 4.58648 6.20898 4.58648C6.47182 4.58648 6.73207 4.63829 6.97486 4.73894C7.21766 4.83959 7.43824 4.9871 7.62398 5.17306L7.68398 5.23306C7.91966 5.46359 8.219 5.61824 8.5434 5.67706C8.86779 5.73588 9.20237 5.69617 9.50398 5.56306H9.58398C9.87975 5.43629 10.132 5.22581 10.3097 4.95752C10.4874 4.68923 10.5827 4.37484 10.584 4.05306V3.88306C10.584 3.35262 10.7947 2.84392 11.1698 2.46884C11.5448 2.09377 12.0536 1.88306 12.584 1.88306C13.1144 1.88306 13.6231 2.09377 13.9982 2.46884C14.3733 2.84392 14.584 3.35262 14.584 3.88306V3.97306C14.5853 4.29484 14.6806 4.60923 14.8583 4.87752C15.036 5.14581 15.2882 5.35629 15.584 5.48306C15.8856 5.61617 16.2202 5.65588 16.5446 5.59706C16.869 5.53824 17.1683 5.38359 17.404 5.15306L17.464 5.09306C17.6497 4.9071 17.8703 4.75959 18.1131 4.65894C18.3559 4.55829 18.6162 4.50648 18.879 4.50648C19.1418 4.50648 19.4021 4.55829 19.6449 4.65894C19.8877 4.75959 20.1082 4.9071 20.294 5.09306C20.4799 5.2788 20.6275 5.49938 20.7281 5.74218C20.8288 5.98497 20.8806 6.24523 20.8806 6.50806C20.8806 6.77089 20.8288 7.03114 20.7281 7.27394C20.6275 7.51673 20.4799 7.73731 20.294 7.92306L20.234 7.98306C20.0034 8.21874 19.8488 8.51807 19.79 8.84247C19.7312 9.16686 19.7709 9.50144 19.904 9.80306V9.88306C20.0307 10.1788 20.2412 10.4311 20.5095 10.6087C20.7778 10.7864 21.0922 10.8818 21.414 10.8831H21.584C22.1144 10.8831 22.6231 11.0938 22.9982 11.4688C23.3733 11.8439 23.584 12.3526 23.584 12.8831C23.584 13.4135 23.3733 13.9222 22.9982 14.2973C22.6231 14.6723 22.1144 14.8831 21.584 14.8831H21.494C21.1722 14.8843 20.8578 14.9797 20.5895 15.1574C20.3212 15.335 20.1107 15.5873 19.984 15.8831V15.8831Z" stroke="#79ADE1" stroke-width="2" stroke-linecap="round" stroke-linejoin="round"/>
</g>
<defs>
<clipPath id="clip0">
<rect width="24" height="24" fill="white" transform="translate(0.583984 0.883057)"/>
</clipPath>
</defs>
</svg>
