<svg width="25" height="24" viewBox="0 0 25 24" fill="none" xmlns="http://www.w3.org/2000/svg">
<path d="M19.5925 14.5477C19.2737 14.8566 19.1272 15.3034 19.1998 15.7415L20.294 21.7969C20.3863 22.3102 20.1697 22.8295 19.7402 23.1262C19.3192 23.4339 18.7592 23.4708 18.3002 23.2246L12.8491 20.3815C12.6595 20.2806 12.4491 20.2265 12.2337 20.2203H11.9002C11.7845 20.2375 11.6712 20.2745 11.5678 20.3311L6.11554 23.1877C5.846 23.3231 5.54077 23.3711 5.24169 23.3231C4.51308 23.1852 4.02692 22.4911 4.14631 21.7588L5.24169 15.7034C5.31431 15.2615 5.16785 14.8123 4.84908 14.4985L0.40477 10.1908C0.0330779 9.83015 -0.0961528 9.28862 0.0736933 8.8C0.238616 8.31262 0.659539 7.95692 1.16785 7.87692L7.28477 6.98954C7.75 6.94154 8.15862 6.65846 8.36785 6.24L11.0632 0.713846C11.1272 0.590769 11.2097 0.477539 11.3094 0.381539L11.4202 0.295385C11.478 0.231385 11.5445 0.178462 11.6183 0.135385L11.7525 0.0861539L11.9617 0H12.4798C12.9426 0.048 13.35 0.324923 13.5629 0.738462L16.294 6.24C16.4909 6.64246 16.8737 6.92185 17.3155 6.98954L23.4325 7.87692C23.9494 7.95077 24.3814 8.30769 24.5525 8.8C24.7137 9.29354 24.5746 9.83508 24.1955 10.1908L19.5925 14.5477Z" fill="#535353"/>
</svg>
