<svg width="448" height="457" viewBox="0 0 448 457" fill="none" xmlns="http://www.w3.org/2000/svg">
<g clip-path="url(#clip0)">
<path opacity="0.15" d="M66.1377 332.285C102.434 332.285 131.857 315.29 131.857 294.326C131.857 273.362 102.434 256.368 66.1377 256.368C29.8417 256.368 0.417969 273.362 0.417969 294.326C0.417969 315.29 29.8417 332.285 66.1377 332.285Z" fill="#D6D8E5"/>
<path opacity="0.5" d="M65.3793 311.437C85.6239 311.437 102.035 301.959 102.035 290.268C102.035 278.577 85.6239 269.1 65.3793 269.1C45.1346 269.1 28.7231 278.577 28.7231 290.268C28.7231 301.959 45.1346 311.437 65.3793 311.437Z" fill="#EDEFF9"/>
<path d="M65.0321 288.797C70.8048 288.797 75.4844 286.092 75.4844 282.755C75.4844 279.419 70.8048 276.714 65.0321 276.714C59.2595 276.714 54.5798 279.419 54.5798 282.755C54.5798 286.092 59.2595 288.797 65.0321 288.797Z" fill="#EDEFF9"/>
<path d="M75.4297 202.661H55.3291V281.686H75.4297V202.661Z" fill="#EDEFF9"/>
<path d="M54.3696 201.766C54.3696 201.766 54.9178 218.017 66.4757 247.164C66.4757 247.164 77.2386 223.693 78.3533 201.272C79.4679 178.852 54.3696 201.766 54.3696 201.766Z" fill="#FFBC00"/>
<path d="M40.2537 140.583L13.5108 166.613L10.3313 200.605L42.6749 184.381L48.5589 142.922L40.2537 140.583Z" fill="#0076CB"/>
<path d="M92.6978 140.583L119.432 166.613L122.62 200.605L90.1578 183.257L84.3926 142.922L92.6978 140.583Z" fill="#0076CB"/>
<path d="M66.1375 205.869C73.4795 205.869 79.4313 202.432 79.4313 198.192C79.4313 193.952 73.4795 190.514 66.1375 190.514C58.7956 190.514 52.8438 193.952 52.8438 198.192C52.8438 202.432 58.7956 205.869 66.1375 205.869Z" fill="#424956"/>
<path d="M45.9824 190.514V183.604H86.2475V190.77L45.9824 190.514Z" fill="#494949"/>
<path d="M66.1378 202.15C77.2693 202.15 86.2932 196.936 86.2932 190.505C86.2932 184.074 77.2693 178.861 66.1378 178.861C55.0063 178.861 45.9824 184.074 45.9824 190.505C45.9824 196.936 55.0063 202.15 66.1378 202.15Z" fill="#2B303F"/>
<path d="M66.0738 194.225C79.6577 194.225 90.6696 187.866 90.6696 180.021C90.6696 172.177 79.6577 165.818 66.0738 165.818C52.4899 165.818 41.478 172.177 41.478 180.021C41.478 187.866 52.4899 194.225 66.0738 194.225Z" fill="#EDEFF9"/>
<path d="M92.6338 154.722C92.6338 155.865 92.6338 156.989 92.6338 158.076C92.6338 158.99 92.6338 159.904 92.6338 160.818C92.6338 162.052 92.5698 163.231 92.5241 164.383C92.5241 165.818 92.4236 167.18 92.3505 168.487C92.2774 169.794 92.2135 171.073 92.1221 172.253C91.7475 177.417 91.7567 181.219 91.1171 182.709C87.636 190.852 75.8589 186.365 70.048 183.44C67.9009 182.361 66.4848 181.475 66.4848 181.475H65.9548C65.9548 181.475 64.2737 182.389 61.7885 183.376C55.6944 185.844 44.831 190.222 41.8159 182.681C41.2768 181.329 40.7378 176.859 40.4089 172.179C40.3266 171.01 40.2535 169.757 40.1804 168.423C40.1073 167.088 40.0708 165.763 40.016 164.328C40.016 163.186 39.952 162.007 39.9246 160.782C39.9246 159.868 39.9246 158.954 39.9246 158.04V154.685C39.7602 122.796 43.1407 71.804 54.3057 50.0416C57.5309 43.7442 61.4048 39.8962 66.0371 39.6677H66.567C71.1353 39.9054 75.0549 43.735 78.2893 50.0051C89.2989 71.6851 92.8348 122.476 92.6338 154.722Z" fill="#EDEFF9"/>
<path d="M66.2016 124.651C71.3334 124.651 75.4935 120.49 75.4935 115.356C75.4935 110.222 71.3334 106.061 66.2016 106.061C61.0698 106.061 56.9097 110.222 56.9097 115.356C56.9097 120.49 61.0698 124.651 66.2016 124.651Z" fill="#2B303F"/>
<path d="M66.2016 126.013C64.0946 126.013 62.0349 125.388 60.283 124.217C58.5311 123.046 57.1656 121.382 56.3593 119.434C55.553 117.487 55.342 115.344 55.753 113.277C56.1641 111.21 57.1787 109.311 58.6686 107.82C60.1585 106.33 62.0568 105.315 64.1233 104.904C66.1898 104.492 68.3318 104.703 70.2785 105.51C72.2251 106.317 73.8889 107.683 75.0595 109.435C76.2301 111.188 76.8549 113.248 76.8549 115.356C76.8525 118.182 75.7294 120.891 73.732 122.889C71.7346 124.887 69.0263 126.011 66.2016 126.013ZM66.2016 107.422C64.6327 107.421 63.0985 107.884 61.7932 108.755C60.4878 109.626 59.4699 110.864 58.8682 112.314C58.2666 113.763 58.1082 115.359 58.4132 116.898C58.7182 118.438 59.4728 119.852 60.5815 120.963C61.6903 122.073 63.1033 122.83 64.642 123.136C66.1806 123.443 67.7756 123.287 69.2253 122.686C70.675 122.086 71.9141 121.069 72.7859 119.765C73.6577 118.46 74.1231 116.925 74.1231 115.356C74.1207 113.254 73.2856 111.239 71.8008 109.752C70.3161 108.265 68.3026 107.427 66.2016 107.422Z" fill="#424956"/>
<path d="M66.2016 97.3227C71.3334 97.3227 75.4935 93.161 75.4935 88.0273C75.4935 82.8936 71.3334 78.7319 66.2016 78.7319C61.0698 78.7319 56.9097 82.8936 56.9097 88.0273C56.9097 93.161 61.0698 97.3227 66.2016 97.3227Z" fill="#2B303F"/>
<path d="M66.2016 98.7122C64.0932 98.714 62.0315 98.0904 60.2773 96.9203C58.523 95.7501 57.155 94.086 56.346 92.1382C55.5371 90.1904 55.3236 88.0464 55.7325 85.9772C56.1414 83.908 57.1543 82.0066 58.6433 80.5132C60.1323 79.0198 62.0304 78.0016 64.0978 77.5873C66.1651 77.1729 68.3089 77.381 70.258 78.1852C72.2072 78.9895 73.8742 80.3537 75.0484 82.1056C76.2226 83.8575 76.8513 85.9183 76.8549 88.0275C76.8573 90.8572 75.7366 93.5722 73.739 95.5757C71.7413 97.5792 69.0303 98.7073 66.2016 98.7122ZM66.2016 80.1214C64.6323 80.1196 63.0977 80.5836 61.7922 81.4546C60.4866 82.3257 59.4687 83.5646 58.8673 85.0147C58.2659 86.4647 58.1081 88.0606 58.4138 89.6004C58.7195 91.1402 59.475 92.5547 60.5847 93.6648C61.6944 94.7748 63.1083 95.5306 64.6475 95.8364C66.1868 96.1423 67.7821 95.9844 69.2316 95.3828C70.6811 94.7812 71.9196 93.7629 72.7903 92.4568C73.661 91.1508 74.1248 89.6157 74.123 88.0458C74.1242 87.0039 73.9203 85.9721 73.5229 85.0091C73.1254 84.0461 72.5423 83.1708 71.8067 82.4333C71.0711 81.6957 70.1975 81.1103 69.2358 80.7105C68.2741 80.3107 67.2431 80.1043 66.2016 80.1031V80.1214Z" fill="#424956"/>
<path d="M92.6338 173.103C92.6338 174.245 92.6338 175.369 92.6338 176.466C91.7201 179.482 89.235 182.371 85.1966 184.692C74.726 190.734 57.7867 190.734 47.2705 184.692C43.2321 182.352 40.7561 179.455 39.8333 176.466V173.112C40.7469 176.183 43.2138 179.108 47.307 181.475C57.7867 187.516 74.7626 187.516 85.2331 181.475C89.2441 179.08 91.7841 176.164 92.6338 173.103Z" fill="#0076CB"/>
<path d="M92.5516 178.422C92.5516 179.647 92.4877 180.835 92.442 181.978C91.4187 184.829 88.9883 187.544 85.1327 189.756C74.6621 195.806 57.7228 195.806 47.2066 189.756C43.3601 187.526 40.9297 184.793 39.8973 181.923C39.8973 180.78 39.8333 179.601 39.8059 178.385C40.7196 181.365 43.2139 184.199 47.1974 186.502C57.6771 192.553 74.653 192.553 85.1235 186.502C89.1254 184.208 91.5923 181.383 92.5516 178.422Z" fill="#0076CB"/>
<path d="M92.2685 168.98C91.163 171.658 88.7874 174.208 85.1602 176.292C74.6896 182.334 57.7503 182.334 47.2341 176.292C43.5794 174.172 41.2039 171.613 40.0984 168.907C40.1715 170.242 40.2446 171.494 40.3268 172.664C41.5054 175.186 43.8079 177.563 47.2341 179.546C51.703 181.982 56.6336 183.452 61.7065 183.86C64.4401 184.126 67.192 184.148 69.9295 183.924C75.2522 183.587 80.4374 182.093 85.1237 179.546C88.5225 177.581 90.8158 175.232 92.0035 172.737L92.2685 168.98Z" fill="#0076CB"/>
<path d="M78.1247 50.0233C70.3101 52.4228 61.9557 52.4228 54.1411 50.0233C57.3663 43.7259 61.2403 39.8779 65.8725 39.6494H66.4025C71.0164 39.9236 74.8904 43.7533 78.1247 50.0233Z" fill="#0076CB"/>
<path d="M68.7506 140.656H64.1914V200.532H68.7506V140.656Z" fill="#0076CB"/>
<path opacity="0.4" d="M284.932 349.313L231.94 318.703C228.112 316.491 228.596 312.634 233.009 310.084L267.344 290.259L334.179 328.857L299.843 348.691C295.421 351.241 288.751 351.515 284.932 349.313Z" fill="#D6D8E5"/>
<path d="M288.797 347.037L235.805 316.418C231.985 314.215 232.461 310.358 236.873 307.808L271.218 287.983L338.052 326.581L303.754 346.406C299.295 348.965 292.616 349.239 288.797 347.037Z" fill="#B1B4C4"/>
<path d="M338.043 326.581V324.562L334.955 326.344L338.043 326.581Z" fill="#B1B4C4"/>
<path d="M233.219 312.771V310.714L236.389 312.031L233.219 312.771Z" fill="#B1B4C4"/>
<path d="M288.797 345.008L235.805 314.398C231.985 312.186 232.461 308.338 236.873 305.788L271.218 285.954L338.052 324.561L303.754 344.386C299.295 346.936 292.616 347.22 288.797 345.008Z" fill="#D6D8E5"/>
<path d="M271.382 286.045L263.114 258.589L330.679 297.361L338.043 324.561L271.382 286.045Z" fill="#9EA1AF"/>
<path d="M336.088 325.686L338.043 324.561L335.129 322.231L336.088 325.686Z" fill="#9EA1AF"/>
<path d="M269.253 287.078L260.985 259.622L328.55 298.394L336.079 325.686L269.253 287.078Z" fill="#B1B4C4"/>
<path d="M440.803 371.998L179.23 220.905C175.576 218.784 172.588 213.099 172.588 208.209V5.82222C172.588 0.923182 175.567 -1.32526 179.23 0.795222L440.803 151.852C444.457 153.972 447.445 159.658 447.445 164.547V366.934C447.418 371.824 444.457 374.073 440.803 371.998Z" fill="#C4C7D6"/>
<path d="M442.118 374.045L445.015 372.373L443.763 363.781L442.118 374.045Z" fill="#C4C7D6"/>
<path d="M172.122 2.04741L174.973 0.393066L179.075 2.74205C179.075 2.74205 174.708 3.40927 174.598 3.38185C174.489 3.35443 172.122 2.04741 172.122 2.04741Z" fill="#B1B4C4"/>
<path d="M438.373 373.342L176.837 222.285C173.182 220.164 170.195 214.488 170.195 209.589V7.20239C170.195 2.31249 173.164 0.0640543 176.837 2.18453L438.373 153.241C442.027 155.362 445.015 161.047 445.015 165.937V368.342C445.015 373.214 442.046 375.462 438.373 373.342Z" fill="#E4E7F2"/>
<path d="M437.916 373.607L176.371 222.55C172.716 220.43 169.729 214.744 169.729 209.855V7.46753C169.729 2.57763 172.707 0.329191 176.371 2.44967L437.916 153.552C441.57 155.663 444.558 161.349 444.558 166.248V368.58C444.558 373.479 441.579 375.727 437.916 373.607Z" fill="#D6D8E5"/>
<path d="M440.958 361.295L173.1 206.564L173.191 8.28086C173.191 6.25178 174.617 5.42918 176.371 6.45286L437.916 157.501C438.838 158.102 439.605 158.912 440.158 159.864C440.71 160.817 441.031 161.885 441.095 162.985L440.958 361.295Z" fill="white"/>
<path d="M278.829 93.3012L193.018 43.7441C192.622 43.4585 192.298 43.084 192.073 42.6507C191.847 42.2174 191.727 41.7373 191.72 41.2489V35.2622C191.72 34.3482 192.296 33.8638 193.018 34.2751L278.829 83.8321C279.223 84.1192 279.546 84.494 279.771 84.927C279.996 85.36 280.118 85.8394 280.126 86.3274V92.3141C280.126 93.2738 279.541 93.7216 278.829 93.3012Z" fill="#E9EAF2"/>
<path d="M256.791 94.7361L193.411 58.1304C193.013 57.8477 192.687 57.4754 192.46 57.0435C192.233 56.6116 192.111 56.1322 192.104 55.6443V52.6647C192.104 51.7507 192.689 51.2571 193.411 51.6776L256.791 88.2833C257.183 88.5694 257.503 88.9431 257.725 89.3748C257.947 89.8064 258.065 90.2839 258.07 90.7693V93.749C258.07 94.7087 257.504 95.1566 256.791 94.7361Z" fill="#E9EAF2"/>
<path d="M256.791 106.024L193.411 69.4641C193.013 69.1815 192.687 68.8091 192.46 68.3772C192.233 67.9453 192.111 67.466 192.104 66.978V63.9801C192.104 63.0661 192.689 62.5726 193.411 62.993L256.791 99.6261C257.187 99.9103 257.51 100.283 257.735 100.715C257.961 101.147 258.082 101.625 258.089 102.112V105.092C258.07 106.024 257.504 106.454 256.791 106.024Z" fill="#E9EAF2"/>
<path d="M244.831 110.429L193.411 80.7244C193.013 80.4417 192.687 80.0694 192.46 79.6375C192.233 79.2055 192.111 78.7262 192.104 78.2383V75.2587C192.104 74.3447 192.689 73.8511 193.411 74.2716L244.831 103.967C245.229 104.253 245.554 104.627 245.781 105.06C246.008 105.493 246.13 105.974 246.138 106.463V109.442C246.138 110.402 245.553 110.841 244.831 110.429Z" fill="#0076CB"/>
<path d="M278.829 211.902L193.018 162.345C192.622 162.059 192.298 161.685 192.073 161.251C191.847 160.818 191.727 160.338 191.72 159.85V153.863C191.72 152.903 192.296 152.464 193.018 152.876L278.829 202.433C279.223 202.72 279.546 203.095 279.771 203.528C279.996 203.961 280.118 204.44 280.126 204.928V210.915C280.126 211.874 279.541 212.313 278.829 211.902Z" fill="#E9EAF2"/>
<path d="M256.791 213.337L193.411 176.777C193.013 176.492 192.688 176.118 192.461 175.684C192.234 175.251 192.112 174.771 192.104 174.282V171.302C192.104 170.342 192.689 169.904 193.411 170.324L256.791 206.884C257.186 207.171 257.508 207.546 257.733 207.979C257.959 208.412 258.08 208.891 258.089 209.379V212.359C258.07 213.309 257.504 213.748 256.791 213.337Z" fill="#E9EAF2"/>
<path d="M256.791 224.634L193.411 188.028C193.014 187.744 192.689 187.372 192.462 186.94C192.236 186.509 192.113 186.03 192.104 185.542V182.562C192.104 181.648 192.689 181.164 193.411 181.584L256.791 218.144C257.186 218.432 257.508 218.806 257.733 219.239C257.959 219.672 258.08 220.152 258.089 220.64V223.619C258.07 224.606 257.504 225.045 256.791 224.634Z" fill="#E9EAF2"/>
<path d="M244.831 229.021L193.411 199.325C193.013 199.041 192.687 198.666 192.46 198.233C192.233 197.8 192.111 197.319 192.104 196.83V193.85C192.104 192.891 192.689 192.452 193.411 192.872L244.831 222.568C245.229 222.853 245.554 223.227 245.781 223.661C246.008 224.094 246.13 224.574 246.138 225.063V228.043C246.138 229.003 245.553 229.414 244.831 229.021Z" fill="#0076CB"/>
<path d="M301.789 226.617C301.789 226.617 311.255 234.569 324.923 223.711C334.681 215.704 343.407 220.274 348.267 223.016C353.128 225.758 360.145 227.44 373.512 251.588C373.512 251.588 377.861 259.156 385.042 263.305C392.224 267.455 395.677 265.426 401.324 256.907C406.97 248.389 410.67 238.956 421.05 245.117V330.749L300.857 261.404V226.06L301.789 226.617Z" fill="#F5F6FF"/>
<path d="M275.668 190.313L193.438 142.785C193.041 142.5 192.716 142.126 192.489 141.693C192.262 141.259 192.14 140.779 192.132 140.29V92.8259C192.132 91.9119 192.716 91.4275 193.438 91.8388L275.668 139.367C276.065 139.652 276.39 140.026 276.617 140.459C276.844 140.893 276.966 141.373 276.974 141.862V189.344C276.974 190.286 276.389 190.724 275.668 190.313Z" fill="#E9EAF2"/>
<path d="M300.857 224.625V261.386L421.05 330.795V245.162" stroke="#E9EAF2" stroke-width="0.31" stroke-miterlimit="10"/>
<path d="M348.094 223.446V288.577" stroke="#E9EAF2" stroke-width="0.31" stroke-miterlimit="10"/>
<path d="M384.868 264.64V309.81" stroke="#E9EAF2" stroke-width="0.31" stroke-miterlimit="10"/>
<path d="M300.857 226.06C322.182 239.285 325.197 209.388 348.432 222.806C371.666 236.223 368.459 253.708 385.609 263.616C402.758 273.524 403.16 234.825 421.05 245.162" stroke="#E9EAF2" stroke-width="1.53" stroke-miterlimit="10"/>
<path d="M350.093 226.932C351.199 226.293 351.197 224.22 350.09 222.301C348.982 220.382 347.188 219.343 346.082 219.982C344.977 220.621 344.978 222.694 346.086 224.613C347.193 226.532 348.988 227.57 350.093 226.932Z" fill="#0076CB"/>
<path d="M424.732 249.64C425.843 249.002 425.845 246.921 424.738 244.993C423.63 243.065 421.832 242.02 420.721 242.659C419.61 243.297 419.608 245.378 420.715 247.306C421.823 249.234 423.621 250.279 424.732 249.64Z" fill="#0076CB"/>
<path d="M388.399 268.39C389.509 267.752 389.512 265.671 388.404 263.743C387.296 261.815 385.498 260.77 384.388 261.408C383.277 262.047 383.274 264.128 384.382 266.056C385.49 267.983 387.288 269.029 388.399 268.39Z" fill="#0076CB"/>
<path d="M302.863 229.543C303.969 228.904 303.967 226.831 302.859 224.912C301.752 222.993 299.958 221.955 298.852 222.593C297.746 223.232 297.748 225.305 298.856 227.224C299.963 229.143 301.757 230.181 302.863 229.543Z" fill="#0076CB"/>
<path d="M304.247 162.902L299.322 160.06C298.925 159.775 298.6 159.401 298.373 158.967C298.146 158.534 298.024 158.054 298.016 157.565V133.801C298.016 132.841 298.601 132.402 299.322 132.813L304.247 135.665C304.644 135.94 304.971 136.304 305.202 136.728C305.434 137.151 305.563 137.623 305.581 138.106V161.915C305.581 162.875 304.969 163.314 304.247 162.902Z" fill="#E9EAF2"/>
<path d="M315.631 169.456L310.707 166.604C310.309 166.321 309.984 165.949 309.757 165.517C309.53 165.085 309.408 164.606 309.4 164.118V115.676C309.4 114.762 309.985 114.268 310.707 114.689L315.631 117.54C316.029 117.826 316.354 118.2 316.581 118.633C316.807 119.066 316.93 119.547 316.938 120.036V168.478C316.901 169.428 316.317 169.867 315.631 169.456Z" fill="#0076CB"/>
<path d="M338.281 182.553L333.356 179.711C332.958 179.427 332.631 179.053 332.404 178.62C332.177 178.186 332.056 177.705 332.05 177.216V133.49C332.05 132.53 332.635 132.091 333.356 132.503L338.281 135.345C338.678 135.63 339.003 136.004 339.23 136.438C339.457 136.871 339.579 137.351 339.588 137.84V181.575C339.588 182.535 339.003 182.974 338.281 182.553Z" fill="#E9EAF2"/>
<path d="M349.629 189.107L344.704 186.264C344.307 185.979 343.982 185.605 343.755 185.171C343.528 184.738 343.406 184.258 343.397 183.769V147.538C343.397 146.624 343.982 146.139 344.704 146.551L349.629 149.402C350.026 149.685 350.352 150.057 350.579 150.489C350.806 150.921 350.928 151.401 350.935 151.888V188.119C350.935 189.088 350.35 189.527 349.629 189.107Z" fill="#0076CB"/>
<path d="M372.223 202.159L367.29 199.316C366.894 199.031 366.57 198.656 366.345 198.223C366.119 197.789 365.999 197.309 365.992 196.821V178.916C365.992 177.947 366.568 177.508 367.29 177.929L372.223 180.771C372.618 181.058 372.94 181.433 373.166 181.866C373.391 182.299 373.512 182.778 373.521 183.266V201.172C373.521 202.131 372.936 202.57 372.223 202.159Z" fill="#E9EAF2"/>
<path d="M383.562 208.712L378.674 205.86C378.276 205.577 377.951 205.205 377.724 204.773C377.497 204.341 377.375 203.862 377.367 203.374V142.474C377.367 141.505 377.952 141.067 378.674 141.487L383.599 144.33C383.996 144.614 384.322 144.988 384.549 145.422C384.776 145.855 384.898 146.336 384.905 146.825V207.725C384.869 208.684 384.284 209.123 383.562 208.712Z" fill="#0076CB"/>
<path d="M411.237 224.698L406.312 221.846C405.915 221.563 405.589 221.191 405.362 220.759C405.135 220.327 405.013 219.848 405.006 219.36V201.446C405.006 200.486 405.59 200.047 406.312 200.458L411.237 203.31C411.636 203.594 411.962 203.968 412.189 204.401C412.416 204.835 412.537 205.316 412.543 205.805V223.711C412.543 224.67 411.959 225.109 411.237 224.698Z" fill="#E9EAF2"/>
<path d="M422.584 231.242L417.66 228.39C417.261 228.107 416.935 227.733 416.708 227.299C416.481 226.866 416.359 226.385 416.353 225.895V202.131C416.353 201.171 416.938 200.733 417.66 201.144L422.584 203.987C422.982 204.272 423.307 204.646 423.534 205.079C423.76 205.512 423.883 205.993 423.891 206.482V230.291C423.891 231.242 423.306 231.662 422.584 231.242Z" fill="#0076CB"/>
<path opacity="0.4" d="M96.2702 455.172L55.4843 431.646C50.8612 428.968 51.4368 424.334 56.7817 421.226L77.4853 409.262C82.8211 406.182 90.8705 405.816 95.521 408.558L136.307 432.121C140.93 434.79 140.354 439.433 135.009 442.531L114.306 454.496C108.97 457.53 100.921 457.914 96.2702 455.172Z" fill="#D6D8E5"/>
<path d="M157.568 425.805V368.854L70.4775 359.047V416.354C70.4227 418.109 71.3912 419.782 73.584 421.025L114.37 444.588C118.993 447.257 127.07 446.919 132.406 443.838L153.109 431.874C156.115 430.138 157.613 427.898 157.522 425.805H157.568Z" fill="#D6D8E5"/>
<path d="M157.513 375.069V368.854H150.816L113.621 347.366C108.998 344.688 100.921 345.026 95.585 348.106L74.8814 360.116C74.5132 360.325 74.1563 360.554 73.8124 360.801L70.4775 359.092C70.4775 359.092 70.4775 365.664 70.4775 365.883C70.4227 367.62 71.3912 369.293 73.584 370.536L114.37 394.089C118.993 396.758 127.07 396.42 132.406 393.34L153.109 381.385C156.206 379.557 157.677 377.272 157.504 375.115L157.513 375.069Z" fill="#EDF0F9"/>
<path d="M114.37 387.271L73.5842 363.717C68.9611 361.048 69.5367 356.405 74.8816 353.298L95.5852 341.343C100.921 338.253 108.998 337.924 113.621 340.593L154.407 364.147C159.03 366.816 158.454 371.459 153.109 374.566L132.406 386.522C127.07 389.611 118.993 389.94 114.37 387.271Z" fill="#E2E5F2"/>
<path d="M105.178 355.117V352.85H103.79L103.36 352.576C101.994 351.882 100.484 351.521 98.9518 351.521C97.4198 351.521 95.9095 351.882 94.5434 352.576C94.2823 352.728 94.0347 352.902 93.8033 353.097L92.7161 352.85V355.117C92.7671 355.666 92.9633 356.191 93.2844 356.639C93.6055 357.087 94.04 357.442 94.5434 357.667C95.9095 358.36 97.4198 358.722 98.9518 358.722C100.484 358.722 101.994 358.36 103.36 357.667C103.864 357.443 104.298 357.089 104.618 356.64C104.937 356.192 105.131 355.665 105.178 355.117Z" fill="#6E48E5"/>
<path d="M98.9472 356.451C102.389 356.451 105.178 354.839 105.178 352.85C105.178 350.861 102.389 349.249 98.9472 349.249C95.5059 349.249 92.7161 350.861 92.7161 352.85C92.7161 354.839 95.5059 356.451 98.9472 356.451Z" fill="#0076CB"/>
<path d="M120.638 364.686C120.298 365.448 119.708 366.07 118.966 366.45C117.6 367.139 116.092 367.499 114.562 367.499C113.032 367.499 111.524 367.139 110.158 366.45C109.416 366.07 108.826 365.448 108.486 364.686C108.029 363.516 108.596 362.264 110.158 361.35C111.524 360.661 113.032 360.302 114.562 360.302C116.092 360.302 117.6 360.661 118.966 361.35C120.537 362.218 121.095 363.47 120.638 364.686Z" fill="#5E42D3"/>
<path d="M120.638 364.686C120.298 365.448 119.708 366.07 118.966 366.45C117.6 367.139 116.092 367.499 114.562 367.499C113.032 367.499 111.524 367.139 110.158 366.45C109.711 366.418 109.293 366.218 108.988 365.89C108.682 365.561 108.513 365.13 108.513 364.682C108.513 364.233 108.682 363.802 108.988 363.474C109.293 363.145 109.711 362.945 110.158 362.913C111.524 362.224 113.032 361.865 114.562 361.865C116.092 361.865 117.6 362.224 118.966 362.913C119.709 363.295 120.3 363.921 120.638 364.686Z" fill="#0076CB"/>
<path d="M135.284 372.793V370.527H133.895L133.465 370.252C132.099 369.559 130.589 369.197 129.057 369.197C127.525 369.197 126.015 369.559 124.649 370.252C124.39 370.405 124.142 370.576 123.909 370.764L122.821 370.527V372.793C122.872 373.342 123.069 373.868 123.39 374.316C123.711 374.764 124.145 375.119 124.649 375.343C126.015 376.037 127.525 376.399 129.057 376.399C130.589 376.399 132.099 376.037 133.465 375.343C133.969 375.12 134.403 374.765 134.723 374.317C135.043 373.868 135.236 373.342 135.284 372.793Z" fill="#6E48E5"/>
<path d="M129.052 374.128C132.494 374.128 135.284 372.515 135.284 370.526C135.284 368.538 132.494 366.925 129.052 366.925C125.611 366.925 122.821 368.538 122.821 370.526C122.821 372.515 125.611 374.128 129.052 374.128Z" fill="#0076CB"/>
<path d="M60.0801 345.958C59.8334 348.088 57.3391 357.282 57.8325 360.436C58.3259 363.589 67.0605 368.854 67.0605 368.854L68.2665 363.461L63.4607 358.745L64.7581 349.815L60.0801 345.958Z" fill="#FFCEA9"/>
<path d="M66.7957 336.9C65.9522 336.507 64.9935 336.438 64.1023 336.706C63.211 336.974 62.4494 337.56 61.9624 338.354C60.6833 340.474 59.3585 347.731 59.2214 348.974C59.2214 348.974 61.0488 351.451 63.7075 351.04L66.7957 336.9Z" fill="#EDEDED"/>
<path d="M76.7088 439.415C78.599 439.935 80.618 439.689 82.3278 438.729C83.68 438.775 91.035 435.622 92.0309 438.263C92.9446 440.585 89.7193 442.723 88.0199 443.135C84.3105 444.049 81.5695 445.877 80.0711 446.206C78.9655 446.434 77.5219 446.59 76.6448 445.712C75.5758 444.67 75.6672 440.795 76.7088 439.415Z" fill="#38226D"/>
<path d="M80.071 445.557C81.5694 445.246 84.3104 443.39 88.0198 442.495C89.4451 442.147 91.9029 440.594 92.1496 438.729C92.4785 440.859 89.6096 442.751 88.0198 443.134C84.3104 444.048 81.5694 445.876 80.071 446.205C78.9654 446.434 77.5219 446.589 76.6447 445.712C76.4045 445.455 76.2345 445.14 76.1514 444.798C76.6995 445.223 77.3398 445.513 78.0207 445.645C78.7016 445.777 79.4039 445.746 80.071 445.557Z" fill="#0076CB"/>
<path d="M64.7945 434.059C66.6835 434.582 68.7025 434.339 70.4136 433.382C71.7658 433.382 79.1116 430.275 80.1166 432.916C81.0303 435.228 77.8051 437.367 76.1057 437.788C72.3962 438.702 69.6461 440.53 68.1568 440.85C67.0421 441.078 65.6077 441.233 64.7214 440.365C63.6616 439.314 63.753 435.439 64.7945 434.059Z" fill="#38226D"/>
<path d="M68.1569 440.21C69.6462 439.89 72.3963 438.044 76.1058 437.139C77.5311 436.801 79.9888 435.238 80.2355 433.382C80.5645 435.512 77.6955 437.395 76.1058 437.788C72.3963 438.702 69.6462 440.53 68.1569 440.85C67.0422 441.078 65.6078 441.234 64.7215 440.365C64.4899 440.103 64.3239 439.79 64.2373 439.451C64.7871 439.873 65.4274 440.161 66.1077 440.293C66.788 440.425 67.4895 440.396 68.1569 440.21Z" fill="#0076CB"/>
<path d="M64.6484 414.088C64.9649 411.358 65.5307 408.662 66.3387 406.035C66.3387 406.035 65.8361 399.089 65.5803 392.499C65.2971 385.022 62.7023 378.442 64.7489 372.482L87.8006 377.61C87.8006 377.61 86.4118 407.415 86.1012 411.017C85.9339 413.826 85.5891 416.623 85.0687 419.389C84.018 425.175 82.3277 438.939 82.3277 438.939C79.8974 440.356 76.6904 439.57 76.6904 439.57C76.6904 439.57 76.8732 422.204 77.0285 418C77.2204 412.909 77.3757 413.293 77.3757 413.293L76.6082 400.615L76.1148 394.309C76.1148 394.309 75.4753 398.934 75.055 403.074C74.6987 406.675 73.8307 409.938 72.8531 416.647C72.0125 422.469 70.642 434.168 70.642 434.168C68.2025 435.585 64.8951 434.406 64.8951 434.406C64.8951 434.406 63.9905 419.133 64.6484 414.088Z" fill="#0076CB"/>
<path d="M68.0289 337.019C69.7922 337.11 71.0988 337.558 71.3181 337.019C71.5011 336.113 71.6323 335.198 71.7109 334.277C71.5099 333.765 71.3363 333.217 71.3363 333.217C69.1344 331.864 68.44 329.479 68.1477 326.7C67.6543 321.956 70.2125 317.807 74.9544 317.313C79.4131 316.847 82.7023 319.982 83.5703 324.287C84.0454 326.408 84.9864 330.429 83.7165 333.921C83.0038 335.877 82.0901 337.43 81.1765 337.732C80.2925 337.703 79.4109 337.624 78.536 337.494C78.536 337.494 78.2984 338.811 78.134 339.651C77.9695 340.492 78.0335 340.949 79.7146 341.982C81.3958 343.015 77.1655 345.181 74.4245 344.971C71.6835 344.761 68.5588 343.097 67.7 341.315C66.7223 339.313 66.8046 336.964 68.0289 337.019Z" fill="#FFCEA9"/>
<path d="M70.5507 337.266C70.0665 338.482 71.3 340.008 74.5983 340.995C77.8966 341.982 78.1981 340.703 78.1981 340.703C80.3891 341.684 82.5242 342.785 84.5937 344.002C86.5764 345.392 87.4535 349.395 87.7185 356.158C88.0291 363.982 88.0565 375.59 87.7915 377.592C87.7915 377.592 84.1369 381.248 79.3584 380.891C74.58 380.535 66.6677 376.321 64.7399 373.077C64.7947 366.212 65.5987 365.097 64.484 361.149C61.9441 352.1 60.6101 348.353 61.8436 342.384C62.8577 337.421 64.283 336.809 66.2474 336.855C67.6883 336.913 69.1249 337.05 70.5507 337.266Z" fill="#F4F4F4"/>
<path d="M95.1737 362.648C91.2815 363.626 90.377 361.176 89.8653 359.147C88.6227 354.23 87.9649 349.797 87.0421 347.009C85.9548 343.719 84.8128 343.198 83.223 342.558C81.3957 341.799 79.7328 343.39 80.3541 347.576C81.1208 352.433 82.3131 357.213 83.9174 361.862C84.4016 363.388 85.4797 366.103 87.1061 367.419C89.107 369.036 92.1312 368.973 96.6995 367.839C98.6456 367.346 100.784 366.185 104.466 364.467C105.452 364.01 106.22 363.699 108.12 362.812C110.029 361.96 111.7 360.655 112.99 359.01C113.986 357.566 114.114 356.889 113.904 356.56C113.694 356.231 113.2 356.241 112.67 356.853C111.901 357.876 110.954 358.752 109.875 359.44C109.875 359.44 111.099 358.169 111.766 357.346C112.362 356.615 112.856 355.806 113.237 354.943C113.584 354.102 112.862 352.959 112.323 353.562C111.784 354.166 111.51 354.769 110.496 355.975C109.958 356.62 109.344 357.197 108.668 357.694C109.292 356.851 109.845 355.959 110.322 355.025C110.752 354.296 110.965 353.458 110.934 352.612C110.934 352.173 110.286 351.652 109.701 352.484C109.136 353.627 108.437 354.698 107.618 355.674C106.704 356.588 105.973 357.118 105.955 356.862C105.937 356.606 106.485 356.103 106.805 355.034C107.124 353.965 106.805 352.822 106.211 352.703C105.617 352.585 105.736 352.612 105.297 353.617C104.642 354.649 104.054 355.72 103.534 356.825C103.228 357.854 102.68 358.795 101.935 359.567C100.975 360.591 98.8649 361.715 95.1737 362.648Z" fill="#FFCEA9"/>
<path d="M81.7797 341.882C84.3745 341.498 86.2109 342.668 87.353 346.598C88.4951 350.528 89.2991 353.718 89.2991 353.718C88.2742 355.2 86.7214 356.233 84.9592 356.606C81.8527 357.365 80.7381 355.875 80.7381 355.875C80.7381 355.875 79.8792 351.762 79.3402 348.956C78.8011 346.15 78.5727 342.357 81.7797 341.882Z" fill="#EDEDED"/>
<path d="M83.4059 323.675C83.4059 323.675 87.4991 317.441 78.6183 316.171C72.2227 315.257 68.1021 319.37 67.6544 323.839C67.1976 328.108 69.8289 332.541 71.7202 334.295C73.5845 334.77 75.5587 334.532 77.257 333.628C77.3658 332.468 77.4085 331.302 77.3849 330.137C77.3849 330.137 74.2328 323.556 83.4059 323.675Z" fill="#3A2C6D"/>
<path opacity="0.4" d="M349.967 443.107C362.395 443.107 372.47 437.288 372.47 430.11C372.47 422.932 362.395 417.113 349.967 417.113C337.539 417.113 327.463 422.932 327.463 430.11C327.463 437.288 337.539 443.107 349.967 443.107Z" fill="#D6D8E5"/>
<path d="M349.775 304.7C350.689 303.211 357.815 302.223 360.154 308.247C361.068 310.532 360.903 316.372 361.643 320.037C362.383 323.702 364.129 325.786 364.759 328.757C365.389 331.727 364.366 336.718 357.194 337.604C350.022 338.491 344.512 335.968 342.822 333.683C341.132 331.398 341.095 326.536 342.822 323.922C344.549 321.308 345.919 319.196 345.874 315.796L349.775 304.7Z" fill="#3A2C6D"/>
<path d="M354.471 303.667C354.471 303.667 349.117 302.123 345.874 305.011C344.805 305.999 344.027 307.26 343.625 308.659C343.222 310.057 343.21 311.54 343.59 312.945C344.019 314.635 344.887 316.939 346.23 317.067C347.573 317.195 354.471 303.667 354.471 303.667Z" fill="#3A2C6D"/>
<path d="M356.518 318.264C356.518 318.264 356.162 324.223 356.271 324.662C356.381 325.101 358.61 325.576 359.241 326.051C359.871 326.527 355.997 332.623 354.033 333.519C352.068 334.414 345.974 332.12 345.545 329.095C345.161 326.298 347.29 324.132 348.112 323.373C348.671 323.32 349.233 323.305 349.793 323.327L349.976 320.439C352.644 319.589 356.518 318.264 356.518 318.264Z" fill="#FFCEA9"/>
<path d="M342.128 329.534C342.128 329.36 341.214 329.844 341.214 329.854C341.214 329.863 340.785 345.163 340.035 346.552C338.126 349.797 333.073 355.299 332.945 355.912C332.571 357.74 333.649 356.104 335.385 355.912C336.362 355.793 342.109 349.98 343.398 348.655L343.48 348.7V348.554L343.644 348.38C343.677 347.967 343.677 347.551 343.644 347.137C346.065 330.512 343.124 329.406 342.128 329.534Z" fill="#FFCEA9"/>
<path d="M357.331 325.247C359.012 325.503 360.922 326.399 361.187 327.313C361.878 330.62 361.715 334.049 360.712 337.275C359.259 341.114 358.281 343.554 357.441 345.209C357.441 345.209 350.195 348.316 344.348 344.688C344.348 344.688 343.946 340.575 343.918 338.372C338.528 333.665 343.142 327.861 347.71 323.355C348.257 323.305 348.808 323.305 349.355 323.355C349.355 323.355 345.28 328.181 348.112 330.923C354.188 329.04 355.394 326.298 357.331 325.247Z" fill="#F4F4F4"/>
<path d="M345.38 310.87C345.974 307.04 348.743 304.143 352.69 304.371C354.28 304.457 355.803 305.041 357.044 306.041C358.284 307.041 359.179 308.405 359.601 309.942C360.024 311.478 359.952 313.108 359.397 314.602C358.842 316.096 357.832 317.377 356.509 318.264C356.373 318.844 356.167 319.406 355.897 319.937C354.499 321.564 350.78 322.596 349.556 322.615C348.496 322.615 347.582 321.637 346.586 319.992C344.522 316.564 345.051 312.762 345.38 310.87Z" fill="#FFCEA9"/>
<path d="M353.923 304.444C356.664 304.984 358.967 305.77 359.725 308.484C360.237 310.367 360.913 313.968 360.273 315.44L359.871 316.527L356.518 318.264C356.518 318.264 354.946 316.957 355.44 313.127C355.421 312.611 355.256 312.11 354.965 311.683C354.755 311.32 354.598 310.929 354.499 310.522C354.101 309.488 353.323 308.644 352.324 308.164C349.83 306.766 346.175 307.972 345.664 308.484C346.37 306.967 347.576 305.738 349.079 305.002C350.582 304.267 352.292 304.07 353.923 304.444Z" fill="#3A2C6D"/>
<path d="M358.966 425.641C357.559 426.783 355.376 425.997 355.312 426.098C353.674 427.502 351.96 428.814 350.177 430.028C349.263 430.714 347.938 431.637 348.185 432.953C348.624 435.32 352.406 434.598 353.832 433.867C355.257 433.136 356.426 431.947 357.779 431.125C358.738 430.531 359.688 430.211 359.843 429.004C359.889 428.246 359.213 425.613 358.966 425.641Z" fill="#38226D"/>
<path d="M359.789 428.492C359.597 429.662 358.665 429.982 357.706 430.576C356.335 431.426 355.129 432.66 353.704 433.382C352.278 434.104 349.09 434.708 348.167 433.026C348.67 435.302 352.388 434.589 353.795 433.867C355.202 433.145 356.39 431.947 357.742 431.125C358.702 430.531 359.652 430.211 359.807 429.004C359.814 428.833 359.808 428.662 359.789 428.492Z" fill="#0076CB"/>
<path d="M349.126 423.676C347.838 424.727 345.901 424.133 345.81 424.233C344.309 425.51 342.741 426.706 341.114 427.816C340.309 428.447 339.058 429.288 339.286 430.494C339.688 432.66 343.151 431.993 344.467 431.335C345.782 430.677 346.833 429.571 348.076 428.803C348.989 428.255 349.821 427.972 349.958 426.856C350.049 426.18 349.355 423.648 349.126 423.676Z" fill="#38226D"/>
<path d="M349.948 426.408C349.775 427.478 348.916 427.77 348.039 428.31C346.787 429.096 345.682 430.22 344.384 430.887C343.087 431.554 340.163 432.103 339.313 430.558C339.77 432.642 343.178 431.993 344.476 431.335C345.773 430.677 346.842 429.571 348.085 428.803C348.998 428.255 349.83 427.971 349.967 426.856C349.978 426.707 349.972 426.556 349.948 426.408Z" fill="#0076CB"/>
<path d="M341.561 358.416C342.182 353.572 343.964 346.534 343.964 346.534C345.648 347.321 347.47 347.771 349.327 347.859C352.05 347.85 354.766 347.587 357.441 347.073C358.312 348.599 359.267 350.076 360.3 351.497C361.698 353.435 364.412 357.676 363.754 365.088C363.325 369.933 360.611 390.507 360.611 390.507C361.668 393.966 362.231 397.557 362.283 401.173C362.027 405.474 361.459 409.751 360.584 413.969L358.966 425.641C358.966 425.641 356.81 427.204 355.312 426.098L355.504 414.673C355.321 411.876 355.038 407.754 354.864 405.122C354.572 400.826 353.804 394.016 353.585 392.326C353.366 390.635 352.817 387.646 352.552 384.319C352.288 380.992 351.045 364.056 351.045 364.056L350.871 367.227C350.871 367.227 350.698 372.373 349.958 378.725C349.218 385.078 348.962 387.865 348.962 387.865C349.663 389.146 350.154 390.532 350.414 391.969C350.542 393.34 352.105 404.198 351.173 409.719L349.245 423.767C348.767 424.099 348.217 424.312 347.64 424.388C347.063 424.465 346.476 424.402 345.928 424.206L344.795 410.048C344.037 404.665 342.429 393.249 342.182 391.768C341.634 388.777 341.31 385.749 341.214 382.71C340.812 376.568 340.94 363.251 341.561 358.416Z" fill="#FFCEA9"/>
<path d="M357.44 345.209L361.607 353.572C361.607 353.572 368.002 362.876 361.378 386.796L362.612 394.181C362.612 394.181 350.149 402.178 341.808 394.181C341.808 394.181 338.921 372.071 340.456 361.88C341.314 356.024 342.612 350.24 344.339 344.578C344.339 344.578 346.385 346.836 356.892 345.346" fill="#0076CB"/>
<path d="M347.71 323.355C347.71 323.355 344.403 322.34 340.885 329.68L342.201 330.466C342.201 330.466 345.663 325.238 347.71 323.355Z" fill="#EDEDED"/>
<path d="M321.881 363.123L336.116 354.852L346.331 360.747L332.096 369.028L321.881 363.123Z" fill="#F4F4F4"/>
<path d="M334.279 355.455C333.387 355.544 332.523 355.825 331.749 356.277C331.464 356.526 331.158 356.749 330.835 356.945C330.698 357.009 330.561 357.1 330.415 357.164C330.197 357.244 330 357.372 329.839 357.539C329.68 357.774 329.594 358.05 329.592 358.334C329.519 358.673 329.501 359.022 329.538 359.367C329.665 359.879 330.195 359.833 330.451 359.476C330.59 359.298 330.67 359.081 330.68 358.855C330.687 358.639 330.746 358.428 330.851 358.239C330.956 358.05 331.104 357.888 331.283 357.767L334.681 355.656C334.642 355.586 334.583 355.53 334.511 355.494C334.439 355.458 334.359 355.444 334.279 355.455Z" fill="#FFCEA9"/>
<path d="M361.36 329.954C360.894 328.016 359.378 328.638 358.071 327.505C355.047 331.791 357.057 343.381 357.468 344.615L345.846 352.027L345.06 352.512C343.738 353.381 342.276 354.018 340.739 354.394C339.579 354.532 338.975 356.168 337.733 356.314C337.638 356.317 337.546 356.349 337.469 356.404C337.392 356.459 337.332 356.535 337.298 356.624C337.264 356.713 337.257 356.809 337.277 356.902C337.298 356.995 337.345 357.08 337.413 357.146C337.906 357.621 339.24 357.228 340.154 356.168C340.15 356.192 340.15 356.217 340.154 356.241C340.161 356.41 340.212 356.575 340.302 356.719C340.392 356.863 340.517 356.982 340.666 357.063C340.732 357.104 340.807 357.129 340.885 357.136C340.885 357.214 340.907 357.29 340.949 357.356C341.015 357.49 341.113 357.606 341.234 357.694C341.355 357.781 341.495 357.838 341.643 357.859C341.709 358.046 341.833 358.207 341.998 358.318C342.163 358.428 342.359 358.482 342.557 358.471C342.824 358.458 343.075 358.343 343.261 358.151C344.252 357.773 345.127 357.143 345.801 356.323C346.396 355.704 347.024 355.119 347.683 354.568C350.835 353.206 360.291 349.166 360.711 348.591C361.369 347.722 362.036 332.696 361.36 329.954Z" fill="#FFCEA9"/>
<path d="M362.42 335.155C362.42 335.155 358.701 336.818 355.613 335.264L356.061 329.442C356.061 329.442 356.107 326.316 358.893 326.006C361.68 325.695 363.142 329.269 362.42 335.155Z" fill="#EDEDED"/>
</g>
<defs>
<clipPath id="clip0">
<rect width="447" height="457" fill="white" transform="translate(0.417969)"/>
</clipPath>
</defs>
</svg>
