<svg width="25" height="25" viewBox="0 0 25 25" fill="none" xmlns="http://www.w3.org/2000/svg">
<path d="M3.375 6.42017H5.375H21.375" stroke="#B0B0B0" stroke-width="2" stroke-linecap="round" stroke-linejoin="round"/>
<path d="M8.375 6.42017V4.42017C8.375 3.88973 8.58571 3.38103 8.96079 3.00595C9.33586 2.63088 9.84457 2.42017 10.375 2.42017H14.375C14.9054 2.42017 15.4141 2.63088 15.7892 3.00595C16.1643 3.38103 16.375 3.88973 16.375 4.42017V6.42017M19.375 6.42017V20.4202C19.375 20.9506 19.1643 21.4593 18.7892 21.8344C18.4141 22.2095 17.9054 22.4202 17.375 22.4202H7.375C6.84457 22.4202 6.33586 22.2095 5.96079 21.8344C5.58571 21.4593 5.375 20.9506 5.375 20.4202V6.42017H19.375Z" stroke="#B0B0B0" stroke-width="2" stroke-linecap="round" stroke-linejoin="round"/>
<path d="M10.375 11.4202V17.4202" stroke="#B0B0B0" stroke-width="2" stroke-linecap="round" stroke-linejoin="round"/>
<path d="M14.375 11.4202V17.4202" stroke="#B0B0B0" stroke-width="2" stroke-linecap="round" stroke-linejoin="round"/>
</svg>
