<svg width="13" height="16" viewBox="0 0 13 16" fill="none" xmlns="http://www.w3.org/2000/svg">
<path fill-rule="evenodd" clip-rule="evenodd" d="M10.2803 7.73047V0.238281H7.92871V7.80859C7.90788 9.19401 7.23861 9.88672 5.9209 9.88672C5.29069 9.88672 4.7959 9.71745 4.43652 9.37891C4.08236 9.03516 3.90527 8.49089 3.90527 7.74609V0.238281H1.56152V7.81641C1.57715 9.04557 1.97559 10.0117 2.75684 10.7148C3.53809 11.418 4.59277 11.7695 5.9209 11.7695C7.26986 11.7695 8.33236 11.4076 9.1084 10.6836C9.88965 9.95964 10.2803 8.97526 10.2803 7.73047ZM1.11328 13.6133C0.560997 13.6133 0.113281 14.061 0.113281 14.6133C0.113281 15.1656 0.560997 15.6133 1.11328 15.6133H11.0752C11.6275 15.6133 12.0752 15.1656 12.0752 14.6133C12.0752 14.061 11.6275 13.6133 11.0752 13.6133H1.11328Z" fill="#B0B0B0"/>
</svg>
