<svg width="28" height="29" viewBox="0 0 28 29" fill="none" xmlns="http://www.w3.org/2000/svg">
<g clip-path="url(#clip0)">
<path d="M23.4846 26.049C24.5891 26.049 25.4846 25.1535 25.4846 24.049V23.2045C25.4846 21.6957 24.8852 20.2487 23.8183 19.1819C22.7514 18.115 21.3045 17.5156 19.7957 17.5156H8.41789C6.90911 17.5156 5.46211 18.115 4.39524 19.1819C3.32837 20.2487 2.729 21.6957 2.729 23.2045V24.049" stroke="#D2D2D2" stroke-width="2.5" stroke-linecap="round" stroke-linejoin="round"/>
<path d="M14.1059 12.7601C17.2478 12.7601 19.7948 10.2131 19.7948 7.07121C19.7948 3.92933 17.2478 1.38232 14.1059 1.38232C10.964 1.38232 8.41699 3.92933 8.41699 7.07121C8.41699 10.2131 10.964 12.7601 14.1059 12.7601Z" stroke="#D2D2D2" stroke-width="2.5" stroke-linecap="round" stroke-linejoin="round"/>
</g>
<defs>
<clipPath id="clip0">
<rect width="26.1333" height="28" fill="white" transform="translate(0.966797 0.059082)"/>
</clipPath>
</defs>
</svg>
