<svg width="82" height="77" viewBox="0 0 82 77" fill="none" xmlns="http://www.w3.org/2000/svg">
<g clip-path="url(#clip0)" filter="url(#filter0_d)">
<path d="M47.3516 46.1599V43.4932C47.3516 42.0788 46.7897 40.7222 45.7895 39.722C44.7894 38.7218 43.4328 38.1599 42.0183 38.1599H31.3516C29.9372 38.1599 28.5806 38.7218 27.5804 39.722C26.5802 40.7222 26.0183 42.0788 26.0183 43.4932V46.1599" stroke="#0076CB" stroke-width="2" stroke-linecap="round" stroke-linejoin="round"/>
<path d="M36.6849 32.8266C39.6304 32.8266 42.0182 30.4388 42.0182 27.4932C42.0182 24.5477 39.6304 22.1599 36.6849 22.1599C33.7394 22.1599 31.3516 24.5477 31.3516 27.4932C31.3516 30.4388 33.7394 32.8266 36.6849 32.8266Z" stroke="#0076CB" stroke-width="2" stroke-linecap="round" stroke-linejoin="round"/>
<path d="M55.3516 46.1599V43.4933C55.3507 42.3116 54.9574 41.1636 54.2334 40.2297C53.5094 39.2957 52.4957 38.6287 51.3516 38.3333" stroke="#0076CB" stroke-width="2" stroke-linecap="round" stroke-linejoin="round"/>
<path d="M46.0183 22.3333C47.1655 22.627 48.1824 23.2942 48.9085 24.2297C49.6346 25.1651 50.0288 26.3157 50.0288 27.4999C50.0288 28.6841 49.6346 29.8347 48.9085 30.7702C48.1824 31.7057 47.1655 32.3729 46.0183 32.6666" stroke="#0076CB" stroke-width="2" stroke-linecap="round" stroke-linejoin="round"/>
</g>
<defs>
<filter id="filter0_d" x="-1.17969" y="-1.20093" width="83.3333" height="78" filterUnits="userSpaceOnUse" color-interpolation-filters="sRGB">
<feFlood flood-opacity="0" result="BackgroundImageFix"/>
<feColorMatrix in="SourceAlpha" type="matrix" values="0 0 0 0 0 0 0 0 0 0 0 0 0 0 0 0 0 0 127 0"/>
<feOffset dy="4"/>
<feGaussianBlur stdDeviation="12.5"/>
<feColorMatrix type="matrix" values="0 0 0 0 0 0 0 0 0 0.462745 0 0 0 0 0.796078 0 0 0 0.35 0"/>
<feBlend mode="normal" in2="BackgroundImageFix" result="effect1_dropShadow"/>
<feBlend mode="normal" in="SourceGraphic" in2="effect1_dropShadow" result="shape"/>
</filter>
<clipPath id="clip0">
<rect width="33.3333" height="28" fill="white" transform="translate(23.8203 19.7991)"/>
</clipPath>
</defs>
</svg>
