<svg width="28" height="29" viewBox="0 0 28 29" fill="none" xmlns="http://www.w3.org/2000/svg">
<path d="M14.1059 12.7601C17.2478 12.7601 19.7948 10.2131 19.7948 7.07121C19.7948 3.92933 17.2478 1.38232 14.1059 1.38232C10.964 1.38232 8.41699 3.92933 8.41699 7.07121C8.41699 10.2131 10.964 12.7601 14.1059 12.7601Z" stroke="#D2D2D2" stroke-width="2.5" stroke-linecap="round" stroke-linejoin="round"/>
<path d="M23.7556 25.5333C24.8601 25.5333 25.7556 24.6379 25.7556 23.5333V22.6889C25.7556 21.1801 25.1562 19.7331 24.0893 18.6662C23.0224 17.5994 21.5755 17 20.0667 17H8.68889C7.1801 17 5.73311 17.5994 4.66624 18.6662C3.59936 19.7331 3 21.1801 3 22.6889C3 22.6889 3 21.5666 3 23.5333" stroke="#D2D2D2" stroke-width="2.5" stroke-linecap="round" stroke-linejoin="round"/>
</svg>
