<svg width="80" height="50" viewBox="0 0 80 50" fill="none" xmlns="http://www.w3.org/2000/svg">
<path fill-rule="evenodd" clip-rule="evenodd" d="M24.8256 38.5155C25.3314 38.2511 26.1912 37.904 27.1019 37.904C29.1924 37.904 30.3224 39.325 30.3224 41.9691C30.3224 45.0581 28.8053 46.5617 26.3602 46.5617C25.4662 46.5617 24.0836 46.2809 23.0718 45.7515V34.2198L24.8256 33.8066V38.5155ZM24.809 45.1405C25.3482 45.3719 25.9387 45.4046 26.3603 45.4046C27.6081 45.4046 28.5523 44.6449 28.5523 41.9691C28.5523 39.8702 27.7766 39.1929 26.6469 39.1929C25.9721 39.1929 25.4836 39.3746 24.809 39.7381V45.1405ZM6.84981 38.1184H6.96791L9.26061 46.3633H11.0815L13.8135 34.6488H11.8405L10.1207 43.3893H10.0032L7.65888 34.6488H6.15824L3.96633 43.3893H3.84823L1.95961 34.6488H0.0712891L2.80298 46.3633H4.6236L6.84981 38.1184ZM21.2848 45.8011V44.5455C20.3574 45.0908 19.5146 45.4046 18.6042 45.4046C16.8673 45.4046 16.0413 44.5286 16.0413 42.5462H21.5377V41.9352C21.5377 39.2426 20.2393 37.904 18.1321 37.904C15.6029 37.904 14.3044 39.7215 14.3044 42.2324C14.3044 44.8433 15.4678 46.5617 18.3003 46.5617C19.5146 46.5617 20.5262 46.2313 21.2848 45.8011ZM19.9362 41.4397H16.0758C16.2607 39.7878 17.0527 39.0111 18.0819 39.0111C18.9924 39.0111 19.8527 39.7045 19.9362 41.4397ZM38.0791 43.8848H37.9944L34.2174 34.6488H32.1773V46.3633H33.6949V38.0693H33.8464L37.2867 46.3633H38.3654L41.8053 37.8709H41.9574V46.3633H43.7783V34.6488H41.6872L38.0791 43.8848ZM45.6336 42.2324C45.6336 39.341 47.2523 37.904 49.478 37.904C51.7039 37.904 53.3229 39.341 53.3229 42.2324C53.3229 45.058 51.7883 46.5617 49.478 46.5617C47.1676 46.5617 45.6336 45.058 45.6336 42.2324ZM51.5514 42.2324C51.5514 40.0023 50.6237 39.0608 49.4773 39.0608C48.3643 39.0608 47.4032 40.0023 47.4032 42.2324C47.4032 44.4967 48.2805 45.4046 49.4773 45.4046C50.6744 45.4046 51.5514 44.4967 51.5514 42.2324ZM59.2224 37.904C57.2842 37.904 55.6819 38.6803 54.9232 39.1265V46.3633H56.6771V39.8205C57.1995 39.5237 58.0596 39.2256 58.7345 39.2256C59.5942 39.2256 60.2512 39.457 60.2512 40.7623V46.3633H62.0047V40.3819C62.0047 38.6803 61.2467 37.904 59.2224 37.904ZM70.5539 44.5455V45.8011C69.7955 46.2313 68.7842 46.5617 67.5696 46.5617C64.7374 46.5617 63.5738 44.8433 63.5738 42.2324C63.5738 39.7215 64.8725 37.904 67.4014 37.904C69.5095 37.904 70.8083 39.2426 70.8083 41.9352V42.5462H65.3112C65.3112 44.5286 66.1373 45.4046 67.8738 45.4046C68.7842 45.4046 69.6273 45.0908 70.5539 44.5455ZM65.3451 41.4397H69.2062C69.1224 39.7045 68.2617 39.0111 67.3512 39.0111C66.3224 39.0111 65.5309 39.7878 65.3451 41.4397ZM79.1711 38.1848H77.3669L75.444 44.2644H75.3435L73.1852 38.1848H71.3303L74.5678 46.4457C74.1625 47.668 73.4551 48.561 72.3085 48.561V49.9151C74.2466 49.9151 75.2755 48.7261 76.1188 46.4457L79.1711 38.1848Z" fill="#0068A3"/>
<path fill-rule="evenodd" clip-rule="evenodd" d="M38.4902 0.0183105C40.8106 0.0183105 43.0082 0.547788 44.9654 1.48782C45.2729 1.63071 45.5794 1.78791 45.8869 1.96148L44.5264 3.15456L42.4824 1.08369L39.0326 4.09868L36.9836 1.90742L30.5572 7.58324L34.6771 12.0321L33.0581 13.4274L37.116 17.8829L35.5065 19.275L41.305 25.5992L44.7471 22.4942L47.723 25.8216C47.1311 26.2725 46.4863 26.6968 45.7759 27.0889C43.624 28.2913 41.1369 28.9798 38.4902 28.9798C30.3506 28.9798 23.7119 22.4741 23.7119 14.4995C23.7119 6.52312 30.3506 0.0183105 38.4902 0.0183105ZM35.7969 13.584L39.3111 10.4831L42.4755 13.9273L38.9616 17.027L35.7969 13.584ZM41.8109 16.4339L38.2963 19.5339L41.4613 22.9781L44.9756 19.8772L41.8109 16.4339ZM33.2818 7.70362L36.796 4.6036L39.9595 8.04696L36.4453 11.147L33.2818 7.70362ZM42.3671 3.71004L39.7314 6.03484L42.1044 8.61823L44.74 6.29256L42.3671 3.71004ZM44.414 16.6855L47.0505 14.3598L49.4235 16.9429L46.7878 19.268L44.414 16.6855ZM49.3672 19.576L46.7322 21.9019L49.1051 24.4836L51.7408 22.1585L49.3672 19.576ZM47.794 9.94631L49.5511 8.39615L51.1329 10.1178L49.3767 11.6677L47.794 9.94631ZM47.3063 3.28078L45.5492 4.83064L47.1309 6.55232L48.8883 5.00246L47.3063 3.28078ZM50.041 15.0617L51.7981 13.5115L53.3802 15.2329L51.6231 16.7831L50.041 15.0617ZM44.7955 8.90254L42.1601 11.2285L44.5336 13.8102L47.1684 11.4851L44.7955 8.90254Z" fill="#0068A3"/>
</svg>
