<svg width="46" height="43" viewBox="0 0 46 43" fill="none" xmlns="http://www.w3.org/2000/svg">
<path d="M45.4149 17.5829C45.1819 16.1936 43.9004 15.2675 42.1529 15.2675C41.5704 15.2675 41.1044 15.2675 40.5218 15.2675C39.4733 15.1517 39.2403 15.499 39.2403 16.3094C39.2403 20.3614 39.2403 24.2977 39.2403 28.3497C39.2403 30.4336 37.1433 32.6332 34.6967 33.0963C27.0076 34.8329 19.3184 36.4537 11.6293 38.1903C10.8138 38.4218 9.88179 38.4218 8.94977 38.4218C8.60026 38.4218 8.01776 38.1903 7.90126 37.843C7.78476 37.6114 8.13426 37.1483 8.36726 36.9168C8.71677 36.6853 9.18278 36.4537 9.64879 36.2222C11.0468 35.7591 12.5613 35.296 13.9593 34.8329C19.6679 32.9806 25.3766 31.1282 31.0852 29.1601C33.6482 28.3497 35.0462 26.6131 35.0462 24.4134C35.1627 17.4671 35.0462 10.4051 35.0462 3.45875C35.0462 2.30103 34.4637 1.37486 33.1822 0.911769C31.6677 0.33291 30.2696 0.79599 28.9881 1.37485C20.833 5.19532 12.7943 9.0158 4.63918 12.8363C2.30914 13.994 0.911133 15.6148 0.911133 17.9302C0.911133 24.5292 0.911133 31.1282 0.911133 37.7272C0.911133 38.0745 0.911104 38.4218 1.02761 38.6534C1.84312 40.8531 3.94019 42.2423 6.73624 42.2423C12.4448 42.2423 18.1534 42.2423 23.862 42.2423C29.5706 42.2423 35.1627 42.2423 40.8713 42.2423C42.1529 42.2423 43.2014 42.0108 44.1334 41.2004C45.2984 40.2742 45.2984 39.0007 45.2984 37.843C45.2984 32.1473 45.4149 17.5829 45.4149 17.5829ZM21.6485 15.499C22.231 13.994 23.5125 13.0678 25.3766 12.8363C26.6581 12.7205 27.7066 13.4151 27.9396 14.5728C28.1726 16.3094 26.0756 18.3933 23.862 18.3933C22.1145 18.3933 21.066 17.1198 21.6485 15.499Z" fill="#FD6727"/>
</svg>
